<?xml version="1.0" encoding="UTF-8"?>
<svg id="Layer_2" xmlns="http://www.w3.org/2000/svg" version="1.1" viewBox="0 0 40.5 150">
  <!-- Generator: Adobe Illustrator 29.6.1, SVG Export Plug-In . SVG Version: 2.1.1 Build 9)  -->
  <defs>
    <style>
      .st0 {
        fill: #fff;
      }

      .st1 {
        fill: none;
      }
    </style>
  </defs>
  <path class="st0" d="M3.8,146.8c-6.4-5.8-3-26.9-1.4-34.9,4.7-23.2,4.7-46.2,4.5-70.2,0-4.6-2.1-8.3.9-13.3,5.8-9.7,14.9,8.5,16.7,13.3,7.5,20,7,43,9.2,63.7,1.2,11.2,7.4,26.2,6.6,37.8-.2,3.2-2.2,5.8-5.5,6.4-5.4.8-22.2.5-27.4-1-1.2-.3-2.9-.9-3.8-1.7h0Z"/>
  <g id="Layer_1-2">
    <rect class="st1" width="40.5" height="150"/>
    <path d="M3.8,146.8c-6.4-5.8-3-26.9-1.4-34.9,4.7-23.2,4.7-46.2,4.5-70.2,0-4.6-2.1-8.3.9-13.3,5.8-9.7,14.9,8.5,16.7,13.3,7.5,20,7,43,9.2,63.7,1.2,11.2,7.4,26.2,6.6,37.8-.2,3.2-2.2,5.8-5.5,6.4-5.4.8-22.2.5-27.4-1-1.2-.3-2.9-.9-3.8-1.7h0ZM32,103.4c-2.4-17.9-3-37.3-7.8-54.7-1.2-4.4-2.7-8.7-5-12.7-1.1-2-5.1-8.9-7.7-8.1-5.1,4.3-2.2,9.6-2.2,14.6.3,19.5-.3,39-2.5,58.4,8.7-9,18.3-7.5,25.2,2.5h0ZM16.7,96.9c-2.4.5-7.8,4.9-9,6.9-4.3,7.1-7.1,30.2-4.2,37.9,1,2.6,1.9,4.4,4.8,5.2,4,1.1,22.9,1.9,26.5.9,2.7-.8,3.2-3.7,3.2-6.1,0-6.6-3.4-27.7-5.9-33.6-2.3-5.3-9.1-12.4-15.4-11.1h0Z"/>
  </g>
</svg>