<?xml version="1.0" encoding="UTF-8"?>
<svg id="Layer_2" data-name="Layer 2" xmlns="http://www.w3.org/2000/svg" viewBox="0 0 100 150">
  <defs>
    <style>
      .cls-1 {
        fill: none;
      }
    </style>
  </defs>
  <g id="Layer_1-2" data-name="Layer 1">
    <rect class="cls-1" width="100" height="150"/>
    <path d="M33.53,146.83c-6.43-5.75-3.03-26.88-1.4-34.87,4.74-23.16,4.71-46.16,4.53-70.25-.03-4.63-2.08-8.28.9-13.29,5.79-9.72,14.9,8.51,16.71,13.31,7.52,20.04,6.96,42.96,9.25,63.7,1.24,11.19,7.36,26.23,6.64,37.78-.2,3.23-2.19,5.84-5.47,6.35-5.42.84-22.24.47-27.41-1.04-1.15-.34-2.89-.92-3.76-1.69ZM61.8,103.44c-2.43-17.94-2.96-37.27-7.78-54.74-1.21-4.4-2.74-8.67-4.96-12.66-1.12-2.02-5.11-8.86-7.7-8.09-5.06,4.31-2.24,9.59-2.17,14.61.28,19.55-.27,38.98-2.54,58.37,8.69-8.98,18.32-7.53,25.16,2.52ZM46.48,96.92c-2.41.49-7.78,4.87-9.04,6.92-4.35,7.1-7.07,30.19-4.22,37.85.99,2.64,1.92,4.41,4.85,5.22,3.98,1.1,22.93,1.87,26.49.85,2.73-.78,3.22-3.68,3.18-6.12-.09-6.64-3.36-27.74-5.89-33.63-2.3-5.35-9.1-12.38-15.39-11.09Z"/>
  </g>
</svg>