<?xml version="1.0" encoding="UTF-8"?>
<svg id="Layer_2" xmlns="http://www.w3.org/2000/svg" version="1.1" viewBox="0 0 32.8 150">
  <!-- Generator: Adobe Illustrator 29.6.1, SVG Export Plug-In . SVG Version: 2.1.1 Build 9)  -->
  <defs>
    <style>
      .st0 {
        fill: #fff;
      }

      .st1 {
        fill: none;
      }
    </style>
  </defs>
  <path class="st0" d="M3.3,28.8c3.3-.9,9.9,7.3,11.5,10,8.6,14.8,10.8,48.3,12.8,65.9.7,6.2,1.4,9.1,2.6,15.2,1.4,7.3,6.8,27-3.7,29.4-7.4,1.7-24.3.7-26.1-8.8-1.6-9.1,2.3-21.8,3.1-30.9,1.5-16.6,2.5-38.9.8-55.4-.6-5.9-4.6-18.5-3.2-23.4.3-.9,1.2-1.9,2.1-2.1h0Z"/>
  <g id="Layer_1-2">
    <rect class="st1" width="32.8" height="150"/>
    <path d="M3.3,28.8c3.3-.9,9.9,7.3,11.5,10,8.6,14.8,10.8,48.3,12.8,65.9.7,6.2,1.4,9.1,2.6,15.2,1.4,7.3,6.8,27-3.7,29.4-7.4,1.7-24.3.7-26.1-8.8-1.6-9.1,2.3-21.8,3.1-30.9,1.5-16.6,2.5-38.9.8-55.4-.6-5.9-4.6-18.5-3.2-23.4.3-.9,1.2-1.9,2.1-2.1h0ZM25.4,107.5c-2.3-19.2-3-40.3-8.8-58.8-2.1-6.8-4.8-12.8-10.5-17.2-.8-.6-1.1-1.6-2.5-1.2-2,1.8,3.1,22.7,3.4,27.2,1.1,16.3-.8,32.9-.9,49.1,6.9-7.6,12.8-6.3,19.3.8ZM7.4,108.9c-.4.5-1.5.6-2,1.7-.7,1.7-1.5,7.7-1.8,10-.6,4.6-2,18.3-.3,21.9,2.8,5.9,24.7,8.8,26.7.2,2.1-8.7-2.1-30.2-9-36.5-6.1-5.5-9.4-3.3-13.7,2.5h0Z"/>
  </g>
</svg>