<?xml version="1.0" encoding="UTF-8"?>
<svg id="Layer_2" data-name="Layer 2" xmlns="http://www.w3.org/2000/svg" viewBox="0 0 100 150">
  <defs>
    <style>
      .cls-1 {
        fill: none;
      }
    </style>
  </defs>
  <g id="Layer_1-2" data-name="Layer 1">
    <rect class="cls-1" width="100" height="150"/>
    <path d="M36.92,28.75c3.27-.91,9.86,7.26,11.48,10.05,8.58,14.77,10.78,48.3,12.79,65.94.71,6.25,1.42,9.12,2.57,15.23,1.38,7.32,6.8,26.99-3.69,29.36-7.37,1.67-24.32.73-26.07-8.84-1.65-9.07,2.31-21.8,3.14-30.87,1.53-16.62,2.47-38.89.84-55.37-.59-5.94-4.62-18.47-3.17-23.35.28-.94,1.16-1.89,2.1-2.15ZM58.98,107.54c-2.33-19.17-3.03-40.3-8.81-58.75-2.11-6.75-4.75-12.8-10.48-17.22-.84-.65-1.07-1.62-2.52-1.25-2.04,1.84,3.09,22.73,3.39,27.24,1.07,16.32-.83,32.9-.87,49.14,6.85-7.62,12.84-6.32,19.29.84ZM41.04,108.91c-.38.52-1.51.56-2,1.73-.73,1.73-1.45,7.71-1.76,10.02-.62,4.59-2.01,18.32-.33,21.94,2.75,5.91,24.67,8.84,26.72.25,2.07-8.66-2.07-30.25-8.96-36.48-6.1-5.51-9.37-3.29-13.66,2.54Z"/>
  </g>
</svg>