<?xml version="1.0" encoding="UTF-8"?>
<svg id="Layer_2" xmlns="http://www.w3.org/2000/svg" version="1.1" viewBox="0 0 39 150">
  <!-- Generator: Adobe Illustrator 29.6.1, SVG Export Plug-In . SVG Version: 2.1.1 Build 9)  -->
  <defs>
    <style>
      .st0 {
        fill: #fff;
      }

      .st1 {
        fill: none;
      }
    </style>
  </defs>
  <path class="st0" d="M7.7,7.9c1.6-.4,2.9.8,4,1.6,17.6,12.6,18.2,75.1,21.5,96,1.9,12.1,10.8,23.6,2,36.5-9.3,13.6-22,7.6-31.4-2-5.8-5.9-3.6-14.7-2.1-22.3,1.7-8.6,3.5-13.2,3.8-22.2.8-22.4,1.9-47.4.9-69.7-.2-4-4.2-16.5,1.4-17.9h0Z"/>
  <g id="Layer_1-2">
    <rect class="st1" width="39" height="150"/>
    <path d="M7.7,7.9c1.6-.4,2.9.8,4,1.6,17.6,12.6,18.2,75.1,21.5,96,1.9,12.1,10.8,23.6,2,36.5-9.3,13.6-22,7.6-31.4-2-5.8-5.9-3.6-14.7-2.1-22.3,1.7-8.6,3.5-13.2,3.8-22.2.8-22.4,1.9-47.4.9-69.7-.2-4-4.2-16.5,1.4-17.9h0ZM30.6,101.8c-1.1-14.6-2.1-29.5-4.3-43.9-1.5-10.1-6.8-42.1-16.2-46.8-1-.5-1.7-1.1-3-.8-.9,6.5,1.4,12.6,1.7,18.8.6,12.9-.6,25.9-.9,38.6-.3,11.3-.4,22.7-.8,34,2.1-1.8,3.4-4.8,5.9-6.2,3.9-2.2,9-1.8,12.5.8l5.1,5.4h0ZM16.1,96.1c-9.3,2.1-13.6,24.2-14,32.2-.4,7.8,1.2,8.9,6.8,13.4,8.6,6.9,16.5,10.8,24.1,0,3.6-5.2,4-10.3,3.4-16.5-.3-3.4-4.1-17.6-5.8-20.3-2.5-4.2-9.4-9.8-14.5-8.6h0Z"/>
  </g>
</svg>