<?xml version="1.0" encoding="UTF-8"?>
<svg id="Layer_2" data-name="Layer 2" xmlns="http://www.w3.org/2000/svg" viewBox="0 0 100 150">
  <defs>
    <style>
      .cls-1 {
        fill: none;
      }
    </style>
  </defs>
  <g id="Layer_1-2" data-name="Layer 1">
    <rect class="cls-1" width="100" height="150"/>
    <path d="M38.22,7.91c1.6-.41,2.86.75,4.03,1.58,17.59,12.59,18.23,75.08,21.48,96.03,1.88,12.12,10.79,23.59,1.97,36.53-9.26,13.59-21.96,7.63-31.44-2.03-5.81-5.91-3.58-14.66-2.1-22.28,1.67-8.57,3.46-13.25,3.79-22.24.83-22.4,1.94-47.39.88-69.69-.19-4.04-4.25-16.46,1.39-17.91ZM61.13,101.81c-1.07-14.58-2.11-29.47-4.31-43.94-1.53-10.08-6.79-42.08-16.19-46.76-1.02-.51-1.72-1.05-2.99-.78-.91,6.47,1.4,12.59,1.71,18.84.65,12.88-.57,25.87-.91,38.62-.31,11.34-.37,22.7-.8,34.03,2.11-1.75,3.43-4.83,5.93-6.22,3.91-2.19,8.97-1.84,12.46.83l5.09,5.39ZM46.63,96.11c-9.28,2.11-13.56,24.17-14.01,32.15-.44,7.75,1.19,8.89,6.77,13.35,8.61,6.88,16.51,10.84,24.12-.08,3.64-5.22,4-10.32,3.41-16.53-.33-3.43-4.13-17.61-5.75-20.27-2.52-4.16-9.35-9.79-14.54-8.61Z"/>
  </g>
</svg>