<?xml version="1.0" encoding="UTF-8"?>
<svg id="Layer_2" xmlns="http://www.w3.org/2000/svg" version="1.1" viewBox="0 0 35.6 150">
  <!-- Generator: Adobe Illustrator 29.6.1, SVG Export Plug-In . SVG Version: 2.1.1 Build 9)  -->
  <defs>
    <style>
      .st0 {
        fill: #fff;
      }

      .st1 {
        fill: none;
      }
    </style>
  </defs>
  <path class="st0" d="M10.9,33.9c11.4-1.9,14.3,20.6,15.7,28.4,3.5,18.7,2.8,33.3,4,51.5.2,3.7,4.3,10,4.8,15.2.9,9.5-2,15.4-10.6,19.6-10.3,4.9-23.4-3.8-24.6-14.5-1-8.9,2.3-12.3,3.3-19.4,2.3-16.2,1.2-42.4.9-59.5-.1-6.3-3.6-19.6,6.5-21.2h0Z"/>
  <g id="Layer_1-2">
    <rect class="st1" width="35.6" height="150"/>
    <path d="M10.9,33.9c11.4-1.9,14.3,20.6,15.7,28.4,3.5,18.7,2.8,33.3,4,51.5.2,3.7,4.3,10,4.8,15.2.9,9.5-2,15.4-10.6,19.6-10.3,4.9-23.4-3.8-24.6-14.5-1-8.9,2.3-12.3,3.3-19.4,2.3-16.2,1.2-42.4.9-59.5-.1-6.3-3.6-19.6,6.5-21.2h0ZM28.7,110.1c0-19.1-1.7-39.4-6.3-57.9-.9-3.7-1.5-7.5-3.4-10.8-2.8-4.9-7.6-8.3-11.7-2.5-3.3,4.8-1.3,6.8-1.3,11.3,0,18.3.8,36.3,0,54.6,0,2.1-1,4.1-.9,6.3,7.5-8.8,15-7.8,23.5-.8h0ZM16.7,106.2c-11.9.2-17,22.6-13.3,31.4,1.9,4.6,9.8,11.2,14.9,11.2s12.7-5.9,14.4-10.8c3.2-9.1-4-32-16-31.8h0Z"/>
  </g>
</svg>