<?xml version="1.0" encoding="UTF-8"?>
<svg id="Layer_2" data-name="Layer 2" xmlns="http://www.w3.org/2000/svg" viewBox="0 0 100 150">
  <defs>
    <style>
      .cls-1 {
        fill: none;
      }
    </style>
  </defs>
  <g id="Layer_1-2" data-name="Layer 1">
    <rect class="cls-1" width="100" height="150"/>
    <path d="M43.1,33.88c11.39-1.87,14.31,20.6,15.75,28.37,3.47,18.74,2.81,33.33,4.03,51.53.25,3.67,4.26,9.98,4.76,15.22.9,9.46-2.02,15.43-10.63,19.57-10.31,4.95-23.43-3.77-24.61-14.54-.98-8.89,2.33-12.29,3.32-19.42,2.26-16.25,1.2-42.44.91-59.52-.11-6.27-3.58-19.57,6.48-21.22ZM60.92,110.11c.02-19.05-1.68-39.43-6.28-57.93-.92-3.69-1.53-7.47-3.42-10.85-2.75-4.91-7.64-8.31-11.66-2.54-3.34,4.8-1.28,6.81-1.26,11.26.09,18.3.79,36.33,0,54.63-.09,2.14-1,4.11-.87,6.26,7.52-8.75,15.02-7.75,23.49-.84ZM48.91,106.18c-11.85.18-16.97,22.64-13.32,31.37,1.91,4.57,9.8,11.18,14.85,11.18,5.21,0,12.7-5.92,14.43-10.77,3.25-9.1-4.03-31.97-15.96-31.79Z"/>
  </g>
</svg>