<?xml version="1.0" encoding="UTF-8"?>
<svg id="Layer_2" xmlns="http://www.w3.org/2000/svg" version="1.1" viewBox="0 0 34.6 150">
  <!-- Generator: Adobe Illustrator 29.6.1, SVG Export Plug-In . SVG Version: 2.1.1 Build 9)  -->
  <defs>
    <style>
      .st0 {
        fill: #fff;
      }

      .st1 {
        fill: none;
      }
    </style>
  </defs>
  <path class="st0" d="M9.1,30.6c5.6-1.7,8.5,10,9.7,14.3,6.1,21.3,6.7,43,9.1,64.8,1.5,13.6,16.1,30.8-3.5,39.5-5.2,2.3-14.6-.2-19.2-3.3-5.8-3.9-5.6-12.8-4.8-19,.6-5.7,3.6-10.7,4.5-15.5,3.2-17,2.2-45,2-62.9,0-3.6-2.7-16.4,2.2-17.9h0Z"/>
  <g id="Layer_1-2">
    <rect class="st1" width="34.6" height="150"/>
    <path d="M9.1,30.6c5.6-1.7,8.5,10,9.7,14.3,6.1,21.3,6.7,43,9.1,64.8,1.5,13.6,16.1,30.8-3.5,39.5-5.2,2.3-14.6-.2-19.2-3.3-5.8-3.9-5.6-12.8-4.8-19,.6-5.7,3.6-10.7,4.5-15.5,3.2-17,2.2-45,2-62.9,0-3.6-2.7-16.4,2.2-17.9h0ZM26.1,110.2c-1.9-20.5-3.3-42.4-8.6-62.3-.5-1.8-4.9-18-8.1-15.8-1.4,4.7-.8,9.8-.8,14.7,0,8.8.3,17.9.9,26.9l-2.5,34.8c7.7-5.9,12.7-5.3,19.3,1.7h0ZM15.1,106.1c-7.3.9-10.8,12.1-12,18.3-1.4,7.3-2.7,16,4.7,20.6,1.5.9,10.5,3.8,12.1,3.8,6.3-.3,12.8-7.9,12.6-14.4-.3-7.9-6.9-29.6-17.3-28.3h0Z"/>
  </g>
</svg>