<?xml version="1.0" encoding="UTF-8"?>
<svg id="Layer_2" data-name="Layer 2" xmlns="http://www.w3.org/2000/svg" viewBox="0 0 100 150">
  <defs>
    <style>
      .cls-1 {
        fill: none;
      }
    </style>
  </defs>
  <g id="Layer_1-2" data-name="Layer 1">
    <rect class="cls-1" width="100" height="150"/>
    <path d="M41.83,30.59c5.6-1.68,8.53,10.03,9.75,14.27,6.14,21.26,6.73,43.04,9.07,64.8,1.47,13.62,16.14,30.84-3.55,39.47-5.18,2.27-14.58-.25-19.18-3.31-5.83-3.88-5.56-12.78-4.85-19.03.65-5.71,3.63-10.71,4.52-15.47,3.18-16.99,2.23-45,2-62.86-.05-3.57-2.69-16.39,2.23-17.86ZM58.86,110.18c-1.88-20.51-3.28-42.36-8.63-62.29-.47-1.76-4.94-18.04-8.14-15.77-1.39,4.72-.81,9.78-.84,14.68-.05,8.81.31,17.91.87,26.91l-2.54,34.8c7.73-5.9,12.68-5.31,19.29,1.68ZM47.77,106.13c-7.31.93-10.81,12.12-12.02,18.28-1.44,7.34-2.73,15.98,4.69,20.57,1.5.93,10.49,3.83,12.06,3.77,6.33-.27,12.83-7.9,12.6-14.35-.28-7.93-6.93-29.59-17.34-28.26Z"/>
  </g>
</svg>