<?xml version="1.0" encoding="UTF-8"?>
<svg id="Layer_2" xmlns="http://www.w3.org/2000/svg" version="1.1" viewBox="0 0 52.7 150">
  <!-- Generator: Adobe Illustrator 29.6.1, SVG Export Plug-In . SVG Version: 2.1.1 Build 9)  -->
  <defs>
    <style>
      .st0 {
        fill: #fff;
      }

      .st1 {
        fill: none;
      }
    </style>
  </defs>
  <path class="st0" d="M26.3,49.5c2.7.7,1.1-2.7,3.4-3.8,3-1.6,9,4.5,10.9,6.8,14.3,16.8,6.2,43.7,8.4,63.8.9,8.6,5,13.8,3.3,24.3-.7,4.7-7.8,9.2-12.3,9.5-5.1.3-11.9-5.8-13.1-5.6s-3.3,4.1-6.2,4.8c-7.1,1.6-18.2-1.2-19.5-9.5-1.8-11.8,5.8-21.3,5.8-32.6.1-18.7-9.6-37.3-6.4-55.9.8-4.3,2.1-8.7,7.2-6.2,2,.9,1.6,4,3.3,4.6,1.3-18.3,10.6-12.6,15.1,0h0Z"/>
  <g id="Layer_1-2">
    <rect class="st1" width="52.7" height="150"/>
    <path d="M26.3,49.5c2.7.7,1.1-2.7,3.4-3.8,3-1.6,9,4.5,10.9,6.8,14.3,16.8,6.2,43.7,8.4,63.8.9,8.6,5,13.8,3.3,24.3-.7,4.7-7.8,9.2-12.3,9.5-5.1.3-11.9-5.8-13.1-5.6s-3.3,4.1-6.2,4.8c-7.1,1.6-18.2-1.2-19.5-9.5-1.8-11.8,5.8-21.3,5.8-32.6.1-18.7-9.6-37.3-6.4-55.9.8-4.3,2.1-8.7,7.2-6.2,2,.9,1.6,4,3.3,4.6,1.3-18.3,10.6-12.6,15.1,0h0ZM17.8,39.5c-1.5-1-3.2,2.3-3.6,3.4-.6,2-1.3,9.6-1.2,11.8.2,3.8,11.8,35,13.6,35,8.3-16.4,2.9-37-8.9-50.3ZM6.9,46.2c-2.4-.9-3.1,1.2-3.7,3.2-4.2,15.2,4.5,34.3,5.4,50,.3,4.8.3,10-.8,14.7,3.1-.6,5.5-2.8,8.9-3.3,4.3-.6,8.5.9,11.6.7,1.8-.1,3.5-1.6,6.7-1.7,5-.2,8.6.9,12.2,4.2-3.4-19.6,6-46.9-10-62.6-2.4-2.3-6.6-6.1-8.1-1.2-.9,2.8,2.6,10.6,3,14.7.4,4.2.4,11.8,0,15.9-.5,5.1-3.3,8.2-4.2,13h-2.5L6.9,46.2ZM45.3,115.2c-2.7-3-6.3-3.9-10.2-3.7-2.7.2-4.8,1.6-6.8,1.7-3.2.2-6.6-1.3-10.8-.7-9.6,1.3-12.2,7.9-13.7,16.5-1.5,9.1-.9,17.6,10.2,18.6,7.4.7,7.5-1.9,12.6-5.9,6.8,4.5,14.5,10.4,21.4,2.1,4.7-5.6,1.8-23.5-2.8-28.7h0Z"/>
  </g>
</svg>