<?xml version="1.0" encoding="UTF-8"?>
<svg id="Layer_2" data-name="Layer 2" xmlns="http://www.w3.org/2000/svg" viewBox="0 0 100 150">
  <defs>
    <style>
      .cls-1 {
        fill: none;
      }
    </style>
  </defs>
  <g id="Layer_1-2" data-name="Layer 1">
    <rect class="cls-1" width="100" height="150"/>
    <path d="M49.98,49.47c2.68.7,1.14-2.65,3.35-3.83,3.01-1.6,9.02,4.5,10.93,6.75,14.26,16.85,6.15,43.65,8.37,63.82.94,8.55,4.98,13.77,3.31,24.29-.74,4.67-7.81,9.24-12.33,9.5-5.12.29-11.86-5.8-13.1-5.59s-3.31,4.13-6.17,4.78c-7.05,1.59-18.2-1.18-19.49-9.53-1.83-11.76,5.78-21.28,5.85-32.64.12-18.65-9.64-37.31-6.37-55.9.76-4.3,2.08-8.66,7.18-6.25,1.99.94,1.6,4.03,3.34,4.61,1.27-18.28,10.62-12.57,15.13,0ZM41.5,39.47c-1.5-1.02-3.22,2.32-3.56,3.43-.62,2.03-1.28,9.57-1.18,11.81.16,3.77,11.75,35.05,13.63,35.04,8.33-16.4,2.89-37.01-8.89-50.28ZM30.57,46.2c-2.37-.9-3.1,1.16-3.68,3.25-4.21,15.24,4.48,34.27,5.44,49.96.3,4.85.29,9.98-.83,14.68,3.15-.62,5.54-2.81,8.88-3.28,4.3-.6,8.49.95,11.64.74,1.82-.12,3.54-1.55,6.73-1.7,4.96-.23,8.57.87,12.19,4.24-3.41-19.58,6.03-46.9-10.02-62.57-2.39-2.33-6.56-6.13-8.08-1.24-.89,2.85,2.62,10.59,2.99,14.72.39,4.2.42,11.75,0,15.92-.51,5.11-3.32,8.25-4.2,13.02h-2.49s-18.57-47.75-18.57-47.75ZM68.98,115.23c-2.7-3.03-6.26-3.94-10.23-3.69-2.74.18-4.75,1.55-6.78,1.7-3.16.23-6.62-1.3-10.75-.74-9.59,1.31-12.21,7.94-13.68,16.53-1.55,9.05-.89,17.57,10.25,18.65,7.44.72,7.53-1.85,12.58-5.89,6.85,4.54,14.45,10.4,21.43,2.12,4.73-5.61,1.77-23.53-2.82-28.68Z"/>
  </g>
</svg>