<?xml version="1.0" encoding="UTF-8"?>
<svg id="Layer_2" xmlns="http://www.w3.org/2000/svg" version="1.1" viewBox="0 0 48 150">
  <!-- Generator: Adobe Illustrator 29.6.1, SVG Export Plug-In . SVG Version: 2.1.1 Build 9)  -->
  <defs>
    <style>
      .st0 {
        fill: #fff;
      }

      .st1 {
        fill: none;
      }
    </style>
  </defs>
  <path class="st0" d="M13.7,40.6c4.9-1.7,5.9,4.2,7.9,5.3,1.8,1,3.1,0,5.5,2.1,7.7,6.9,14.6,25.5,15.5,35.7,1.4,15.3,1.6,26.1,4.7,41.5,2.6,12.8-.5,28.4-17.3,24-3.4-.9-6-5.3-8-5.5-3.9-.4-5.8,4.6-13,1.3-8.2-3.7-10.3-12.7-8.1-20.8,2.4-9.2,4.5-8.8,3.9-20.4-1.3-25.1-7.4-31.7,5.4-55.9,1-1.8,1.3-6.6,3.6-7.4h0Z"/>
  <g id="Layer_1-2">
    <rect class="st1" width="48" height="150"/>
    <path d="M13.7,40.6c4.9-1.7,5.9,4.2,7.9,5.3,1.8,1,3.1,0,5.5,2.1,7.7,6.9,14.6,25.5,15.5,35.7,1.4,15.3,1.6,26.1,4.7,41.5,2.6,12.8-.5,28.4-17.3,24-3.4-.9-6-5.3-8-5.5-3.9-.4-5.8,4.6-13,1.3-8.2-3.7-10.3-12.7-8.1-20.8,2.4-9.2,4.5-8.8,3.9-20.4-1.3-25.1-7.4-31.7,5.4-55.9,1-1.8,1.3-6.6,3.6-7.4h0ZM24.9,91.7v-18.1c0-5.1-3.8-14.2-5-19.3-.9-3.8,1.1-10-4.6-12.1-1.9,1-2.4,2.5-2.3,4.6,0,2.2,3.3.7,4.1,3.5.4,1.4.9,7.8,1,9.9.4,6.2,0,10.9,1.1,17.4.8,4.4,2,11.4,5.6,14.1ZM43.3,117.7c-4.4-17.9-.4-37.1-8.5-54-1.5-3.2-5.2-9.1-7.5-11.8-.6-.7-4.2-4.8-5-3.8.4,12.8,5.8,24.1,5,37.3-.2,3.9-2.5,8.5-.8,12.2-.7,0-2,.2-2.5,0s-3.8-8.4-4.3-9.6c-2.2-6-3.7-13.8-4.2-20.2-.2-3,.9-17.5-1.4-18.1-4.8-1.2-7.2,7-8.3,10.9-1.2,4.5-1.3,9.2-2.1,13.8l3.4,39.1c2.3-1.2,4.5-2.2,7.1-2.5,4.8-.5,19.8.8,24,2.9,2,1,3.2,2.7,5,3.8ZM13.7,112.9c-11.3,2.1-15.4,19.5-7.8,27.5,8.4,8.9,11.6,0,17.5,1.8,2.2.7,4.1,4.9,8.6,5.7,17.8,2.8,18-26,4.9-32.6-3.8-1.9-18.9-3.2-23.2-2.4h0Z"/>
  </g>
</svg>