<?xml version="1.0" encoding="UTF-8"?>
<svg id="Layer_2" data-name="Layer 2" xmlns="http://www.w3.org/2000/svg" viewBox="0 0 100 150">
  <defs>
    <style>
      .cls-1 {
        fill: none;
      }
    </style>
  </defs>
  <g id="Layer_1-2" data-name="Layer 1">
    <rect class="cls-1" width="100" height="150"/>
    <path d="M39.7,40.63c4.89-1.65,5.87,4.2,7.86,5.33,1.75.99,3.06-.09,5.48,2.08,7.73,6.9,14.56,25.53,15.47,35.73,1.37,15.35,1.58,26.12,4.67,41.5,2.58,12.81-.47,28.38-17.27,23.99-3.35-.88-5.95-5.31-7.98-5.51-3.92-.38-5.77,4.57-12.98,1.29-8.19-3.72-10.27-12.72-8.15-20.75,2.42-9.15,4.53-8.8,3.95-20.38-1.27-25.07-7.38-31.66,5.39-55.9.96-1.82,1.33-6.61,3.57-7.37ZM50.89,91.72v-18.05c0-5.06-3.8-14.15-4.99-19.35-.88-3.83,1.06-10.03-4.57-12.08-1.85,1.05-2.35,2.55-2.27,4.59.09,2.24,3.3.74,4.12,3.5.43,1.44.88,7.77,1.03,9.88.44,6.18-.05,10.93,1.07,17.39.77,4.4,1.95,11.4,5.61,14.12ZM69.35,117.74c-4.42-17.86-.42-37.11-8.49-54.04-1.53-3.22-5.19-9.14-7.47-11.84-.57-.68-4.19-4.77-5.01-3.79.36,12.79,5.8,24.11,5.02,37.34-.23,3.91-2.46,8.51-.83,12.17-.74-.09-2,.24-2.45-.06s-3.84-8.36-4.28-9.57c-2.21-6.03-3.67-13.77-4.17-20.17-.24-3.02.93-17.49-1.41-18.07-4.84-1.2-7.25,6.98-8.26,10.94-1.16,4.55-1.29,9.23-2.14,13.83l3.41,39.06c2.27-1.22,4.5-2.23,7.12-2.52,4.84-.53,19.84.76,23.98,2.89,1.99,1.03,3.15,2.68,4.98,3.83ZM39.76,112.9c-11.27,2.08-15.37,19.53-7.78,27.53,8.42,8.86,11.55.02,17.48,1.81,2.2.67,4.06,4.95,8.62,5.66,17.75,2.76,17.95-25.97,4.86-32.56-3.85-1.94-18.87-3.24-23.19-2.44Z"/>
  </g>
</svg>