<?xml version="1.0" encoding="UTF-8"?>
<svg id="Layer_2" xmlns="http://www.w3.org/2000/svg" version="1.1" viewBox="0 0 45.6 150">
  <!-- Generator: Adobe Illustrator 29.6.1, SVG Export Plug-In . SVG Version: 2.1.1 Build 9)  -->
  <defs>
    <style>
      .st0 {
        fill: #fff;
      }

      .st1 {
        fill: none;
      }
    </style>
  </defs>
  <path class="st0" d="M6.8,59.6c.2-.2-2.4-3.7,1.4-4.9,4.8-1.5,9.2,6.6,11.6,9.9,3.4-6.5,11.1,5.2,13.2,8.7,8.8,14.8,7.6,31,9.1,47.2.6,6.8,4.3,11,3.4,18.5-.6,4.7-4.3,10.2-9.2,11-6.8,1.1-12.1-6-14.9-6.3-2.3-.2-3.8,6.1-10.6,4.7-7.5-1.5-11.3-12.8-10.7-19.6.3-3.7,2.5-5.8,3.2-8.6,4.1-18.1,1.9-39-2.4-56.9.5-5.8,5.7-3.5,5.9-3.8h0Z"/>
  <g id="Layer_1-2">
    <rect class="st1" width="45.6" height="150"/>
    <path d="M6.8,59.6c.2-.2-2.4-3.7,1.4-4.9,4.8-1.5,9.2,6.6,11.6,9.9,3.4-6.5,11.1,5.2,13.2,8.7,8.8,14.8,7.6,31,9.1,47.2.6,6.8,4.3,11,3.4,18.5-.6,4.7-4.3,10.2-9.2,11-6.8,1.1-12.1-6-14.9-6.3-2.3-.2-3.8,6.1-10.6,4.7-7.5-1.5-11.3-12.8-10.7-19.6.3-3.7,2.5-5.8,3.2-8.6,4.1-18.1,1.9-39-2.4-56.9.5-5.8,5.7-3.5,5.9-3.8h0ZM23.6,90.6c.1-6.5-.9-16-3.6-22-.6-1.4-9.5-14.7-11.5-12.4-.8,7.4,8.5,11.3,10.2,18.7,0,0,4.9,15.7,4.9,15.7ZM21.9,100.7c-.1-10.3-2.9-23.3-8.9-31.8-1.1-1.7-7.6-9.5-9.6-7.6-1.4,1.4,1.9,11.7,2.3,14.1,2.4,14.3,2.7,27.8.3,42.1,11.2-9.1,25.3-8,34.4,3.4-.7-17.2-2-39.3-13.8-52.9-.6-.6-3.8-4.3-4.6-3.3.6,8.3,4.5,16.1,4.2,24.8-.1,4.2-2.5,7.1-1.7,11.3h-2.5ZM17.5,113.5c-2.7.4-8.3,3.8-10.3,5.7-7,6.5-6.2,21.4,2.1,26.4,5.7,3.4,5,.4,8.1-1.9,7.1-5.4,12.5,8.1,20.4,3.6,10.9-6.2,4.6-22.6-2.9-28.9-5.6-4.7-9.9-6.1-17.4-4.8Z"/>
  </g>
</svg>