<?xml version="1.0" encoding="UTF-8"?>
<svg id="Layer_2" data-name="Layer 2" xmlns="http://www.w3.org/2000/svg" viewBox="0 0 100 150">
  <defs>
    <style>
      .cls-1 {
        fill: none;
      }
    </style>
  </defs>
  <g id="Layer_1-2" data-name="Layer 1">
    <rect class="cls-1" width="100" height="150"/>
    <path d="M34,59.56c.2-.21-2.38-3.73,1.44-4.89,4.8-1.45,9.24,6.61,11.57,9.91,3.35-6.5,11.09,5.16,13.17,8.67,8.79,14.75,7.64,31.04,9.08,47.15.61,6.82,4.3,10.96,3.36,18.5-.59,4.74-4.34,10.18-9.23,10.97-6.84,1.11-12.07-6.01-14.85-6.26-2.27-.2-3.83,6.06-10.56,4.74-7.47-1.47-11.33-12.81-10.7-19.55.35-3.71,2.52-5.77,3.16-8.59,4.13-18.1,1.91-39-2.39-56.89.52-5.77,5.66-3.48,5.95-3.77ZM50.78,90.62c.15-6.52-.86-16.03-3.58-22.01-.63-1.39-9.51-14.68-11.52-12.4-.81,7.43,8.49,11.31,10.22,18.73l4.88,15.68ZM49.11,100.7c-.15-10.32-2.93-23.28-8.87-31.85-1.15-1.66-7.62-9.55-9.59-7.61-1.38,1.36,1.87,11.7,2.27,14.1,2.39,14.33,2.66,27.77.26,42.14,11.16-9.05,25.26-8.02,34.4,3.36-.74-17.23-1.97-39.35-13.83-52.89-.56-.64-3.84-4.27-4.62-3.34.57,8.32,4.47,16.08,4.25,24.77-.1,4.17-2.55,7.06-1.74,11.33h-2.51ZM44.7,113.48c-2.66.45-8.27,3.81-10.27,5.68-6.98,6.53-6.24,21.44,2.13,26.39,5.7,3.38,5,.4,8.05-1.94,7.09-5.44,12.54,8.05,20.38,3.59,10.88-6.19,4.62-22.6-2.88-28.87-5.62-4.7-9.91-6.13-17.41-4.85Z"/>
  </g>
</svg>