<?xml version="1.0" encoding="UTF-8"?>
<svg id="Layer_2" xmlns="http://www.w3.org/2000/svg" version="1.1" viewBox="0 0 40.5 150">
  <!-- Generator: Adobe Illustrator 29.6.1, SVG Export Plug-In . SVG Version: 2.1.1 Build 9)  -->
  <defs>
    <style>
      .st0 {
        fill: #fff;
      }

      .st1 {
        fill: none;
      }
    </style>
  </defs>
  <path class="st0" d="M27.5,25.6c3.4-.4,5.7,3.1,6.1,6.1,2.1,13.5-.6,34,0,48.6.7,16.6,6.3,33.3,6.7,48.7.2,5.8,0,17.1-6.7,19.4-4.7,1.6-23,2-28.1,1.2-4.7-.7-5.7-4.5-5.6-8.8.4-12.8,5-26.7,6.7-39.5,1.7-13.8,1.8-27.8,4.5-41.6,1.4-6.9,8-33.1,16.2-34h0Z"/>
  <g id="Layer_1-2">
    <rect class="st1" width="40.5" height="150"/>
    <path d="M27.5,25.6c3.4-.4,5.7,3.1,6.1,6.1,2.1,13.5-.6,34,0,48.6.7,16.6,6.3,33.3,6.7,48.7.2,5.8,0,17.1-6.7,19.4-4.7,1.6-23,2-28.1,1.2-4.7-.7-5.7-4.5-5.6-8.8.4-12.8,5-26.7,6.7-39.5,1.7-13.8,1.8-27.8,4.5-41.6,1.4-6.9,8-33.1,16.2-34h0ZM33.7,101.8c-.4-8.4-2.2-17.3-2.5-25.6-.6-13.7,1.5-29.6.6-42.7-.1-2.2-1.8-5-3.5-6.4-6.3,5.2-9.7,13-11.9,20.8-5.1,17.6-5.6,37.4-7.8,55.6,7-10.3,17.1-11.6,25.2-1.7ZM3.6,146.9c1.6,1.6,20.2,1.3,23.6.9,4.4-.5,7.4-1.4,9.4-5.8,3.1-6.9.8-24.6-1.5-32.1-2.8-9.1-11.5-18.2-20.7-10.2-7,6.1-8.4,14.7-9.9,23.6-.7,4.1-3.2,21.2-.9,23.5h0Z"/>
  </g>
</svg>