<?xml version="1.0" encoding="UTF-8"?>
<svg id="Layer_2" data-name="Layer 2" xmlns="http://www.w3.org/2000/svg" viewBox="0 0 100 150">
  <defs>
    <style>
      .cls-1 {
        fill: none;
      }
    </style>
  </defs>
  <g id="Layer_1-2" data-name="Layer 1">
    <rect class="cls-1" width="100" height="150"/>
    <path d="M57.24,25.63c3.43-.38,5.67,3.14,6.13,6.13,2.09,13.48-.59,34.02.06,48.62.74,16.58,6.29,33.26,6.74,48.66.17,5.78.06,17.06-6.72,19.37-4.69,1.6-23.02,1.97-28.1,1.18-4.72-.74-5.69-4.51-5.56-8.78.41-12.82,5.04-26.66,6.66-39.54,1.74-13.85,1.85-27.85,4.53-41.63,1.35-6.94,8-33.09,16.25-34.01ZM63.42,101.8c-.44-8.37-2.17-17.28-2.54-25.57-.62-13.72,1.51-29.63.6-42.73-.15-2.21-1.79-4.99-3.5-6.39-6.3,5.25-9.67,13.05-11.93,20.79-5.15,17.59-5.57,37.44-7.79,55.58,7-10.34,17.12-11.56,25.16-1.68ZM33.41,146.93c1.59,1.59,20.24,1.31,23.62.93,4.43-.5,7.41-1.39,9.35-5.76,3.06-6.89.77-24.59-1.51-32.08-2.77-9.14-11.46-18.22-20.66-10.23-6.98,6.06-8.45,14.65-9.94,23.64-.68,4.08-3.17,21.2-.86,23.51Z"/>
  </g>
</svg>