<?xml version="1.0" encoding="UTF-8"?>
<svg id="Layer_2" data-name="Layer 2" xmlns="http://www.w3.org/2000/svg" viewBox="0 0 100 150">
  <defs>
    <style>
      .cls-1 {
        fill: none;
      }
    </style>
  </defs>
  <g id="Layer_1-2" data-name="Layer 1">
    <rect class="cls-1" width="100" height="150"/>
    <path d="M61.02,28.91c8.74-2.2,1.84,18.24,1.27,22.32-2.43,17.31-.9,40.86.63,58.52.81,9.33,4.79,21.58,3.3,31.02s-19.29,9.92-26.34,8.81c-9.73-1.52-5.88-20.97-4.43-27.84,4.12-19.61,4.89-37.61,8.43-57.05,1.6-8.81,7.05-33.25,17.16-35.79ZM62.89,30.44c-5.34,2.27-9.48,8.74-11.56,14.03-7.42,18.86-7.54,43.2-10.25,63.18,5.54-7.17,13.33-8.4,19.29-.84.08-17.01-2.17-35.49-.86-52.49.62-8.03,4.46-15.68,3.38-23.89ZM41.3,110.4c-1.64,2.55-4.88,18.5-5.16,22.13-1.17,15.27,1.71,17.18,17.01,15.33,12.31-1.49,11.25-9.31,10.58-19.62-.16-2.52-2.15-16.64-2.95-18.04-.16-.28-4.22-4.29-4.63-4.6-6.3-4.84-8.84-1.28-12.57,3.35-.59.74-1.96.96-2.28,1.46Z"/>
  </g>
</svg>