<?xml version="1.0" encoding="UTF-8"?>
<svg id="Layer_2" xmlns="http://www.w3.org/2000/svg" version="1.1" viewBox="0 0 33.1 150">
  <!-- Generator: Adobe Illustrator 29.6.1, SVG Export Plug-In . SVG Version: 2.1.1 Build 9)  -->
  <defs>
    <style>
      .st0 {
        fill: #fff;
      }

      .st1 {
        fill: none;
      }
    </style>
  </defs>
  <path class="st0" d="M27.5,28.9c8.7-2.2,1.8,18.2,1.3,22.3-2.4,17.3-.9,40.9.6,58.5.8,9.3,4.8,21.6,3.3,31s-19.3,9.9-26.3,8.8c-9.7-1.5-5.9-21-4.4-27.8,4.1-19.6,4.9-37.6,8.4-57.1,1.6-8.8,7-33.2,17.2-35.8h0Z"/>
  <g id="Layer_1-2">
    <rect class="st1" width="33.1" height="150"/>
    <path d="M27.6,28.9c8.7-2.2,1.8,18.2,1.3,22.3-2.4,17.3-.9,40.9.6,58.5.8,9.3,4.8,21.6,3.3,31s-19.3,9.9-26.3,8.8c-9.7-1.5-5.9-21-4.4-27.8,4.1-19.6,4.9-37.6,8.4-57.1,1.6-8.8,7-33.2,17.2-35.8h0ZM29.4,30.4c-5.3,2.3-9.5,8.7-11.6,14-7.4,18.9-7.5,43.2-10.2,63.2,5.5-7.2,13.3-8.4,19.3-.8,0-17-2.2-35.5-.9-52.5.6-8,4.5-15.7,3.4-23.9h0ZM7.8,110.4c-1.6,2.6-4.9,18.5-5.2,22.1-1.2,15.3,1.7,17.2,17,15.3,12.3-1.5,11.2-9.3,10.6-19.6-.2-2.5-2.1-16.6-3-18-.2-.3-4.2-4.3-4.6-4.6-6.3-4.8-8.8-1.3-12.6,3.3-.6.7-2,1-2.3,1.5h0Z"/>
  </g>
</svg>