<?xml version="1.0" encoding="UTF-8"?>
<svg id="Layer_2" data-name="Layer 2" xmlns="http://www.w3.org/2000/svg" viewBox="0 0 100 150">
  <defs>
    <style>
      .cls-1 {
        fill: none;
      }
    </style>
  </defs>
  <g id="Layer_1-2" data-name="Layer 1">
    <rect class="cls-1" width="100" height="150"/>
    <path d="M60.71,7.79c7.77-1.63,2.9,14.91,2.72,18.72-1.24,25.35.9,51.28.86,76.43,0,4.55,4.4,15.58,4.94,21.92,1.06,12.54-1.17,14.7-11.38,21.14-9.48,5.98-16.58,5.76-23.29-4.1-9.33-13.71.28-24,1.97-36.53,3.17-23.52,3.17-76.01,18.95-93.53,1.27-1.41,3.36-3.66,5.23-4.05ZM62.61,100.83c-.86-23.91-2.85-48.64-1.7-72.64.29-6.18,3.38-12.48.86-18.85-.32-.23-2.76,1.52-3.35,2.1-10.33,10.16-13.95,38.77-15.83,53-1.58,11.99-2.82,24.45-3.06,36.39,6.99-9.01,16.22-9.16,23.08,0ZM48.94,95.97c-2.18.5-8.96,7.21-10.01,9.29-3.22,6.37-6.49,20.67-5.47,27.66.9,6.21,6.85,15.21,13.76,15.45,3.97.14,17.82-8.91,19.2-12.27,1.76-4.3.23-13.91-.67-18.69-1.49-7.9-6.11-23.89-16.8-21.45Z"/>
  </g>
</svg>