<?xml version="1.0" encoding="UTF-8"?>
<svg id="Layer_2" xmlns="http://www.w3.org/2000/svg" version="1.1" viewBox="0 0 38.9 150">
  <!-- Generator: Adobe Illustrator 29.6.1, SVG Export Plug-In . SVG Version: 2.1.1 Build 9)  -->
  <defs>
    <style>
      .st0 {
        fill: #fff;
      }

      .st1 {
        fill: none;
      }
    </style>
  </defs>
  <path class="st0" d="M30.2,7.8c7.8-1.6,2.9,14.9,2.7,18.7-1.2,25.4.9,51.3.9,76.4,0,4.6,4.4,15.6,4.9,21.9,1.1,12.5-1.2,14.7-11.4,21.1-9.5,6-16.6,5.8-23.3-4.1-9.3-13.7.3-24,2-36.5,3.2-23.5,3.2-76,19-93.5,1.3-1.4,3.4-3.7,5.2-4Z"/>
  <g id="Layer_1-2">
    <rect class="st1" width="38.9" height="150"/>
    <path d="M30.2,7.8c7.8-1.6,2.9,14.9,2.7,18.7-1.2,25.4.9,51.3.9,76.4,0,4.6,4.4,15.6,4.9,21.9,1.1,12.5-1.2,14.7-11.4,21.1-9.5,6-16.6,5.8-23.3-4.1-9.3-13.7.3-24,2-36.5,3.2-23.5,3.2-76,19-93.5,1.3-1.4,3.4-3.7,5.2-4ZM32.1,100.8c-.9-23.9-2.9-48.6-1.7-72.6.3-6.2,3.4-12.5.9-18.9-.3-.2-2.8,1.5-3.4,2.1-10.3,10.2-13.9,38.8-15.8,53-1.6,12-2.8,24.4-3.1,36.4,7-9,16.2-9.2,23.1,0ZM18.4,96c-2.2.5-9,7.2-10,9.3-3.2,6.4-6.5,20.7-5.5,27.7.9,6.2,6.8,15.2,13.8,15.4,4,.1,17.8-8.9,19.2-12.3,1.8-4.3.2-13.9-.7-18.7-1.5-7.9-6.1-23.9-16.8-21.4h0Z"/>
  </g>
</svg>