<?xml version="1.0" encoding="UTF-8"?>
<svg id="Layer_2" data-name="Layer 2" xmlns="http://www.w3.org/2000/svg" viewBox="0 0 100 150">
  <defs>
    <style>
      .cls-1 {
        fill: none;
      }
    </style>
  </defs>
  <g id="Layer_1-2" data-name="Layer 1">
    <rect class="cls-1" width="100" height="150"/>
    <path d="M49.64,36.34c5.75-5.15,11.72-1.65,14.64,4.5-.14,17.55-1.27,35.16-.7,52.74.32,9.8,1.41,18.54,3.14,27.92,1.43,7.71,2.64,15.19-3.11,21.57-7.9,8.76-18.51,9.41-26.88.87-6.1-6.21-5.12-13.02-3.08-20.77.7-2.67,3.55-8.09,3.71-9.58.33-3.18-.82-9.18-.59-13.32.65-11.55,1.68-23.61,3.59-35.02,1.17-6.99,4.24-24.4,9.28-28.91ZM62.77,110.76c-1.33-17.14-2.14-34.43-1.7-51.66.15-5.85,3.37-16.34-.78-20.98-9.48-10.61-14.46,12.31-15.72,17.92-3.92,17.44-5.21,36.02-5.29,53.88,8.01-7.24,16.3-7.63,23.49.84ZM48.28,106.76c-8.9,1.86-14.49,19.12-14.08,27.05s11.76,16.91,19.11,14.07c4.45-1.72,11.41-8.21,12-13.17,1.25-10.37-3.02-30.88-17.04-27.94Z"/>
  </g>
</svg>