<?xml version="1.0" encoding="UTF-8"?>
<svg id="Layer_2" xmlns="http://www.w3.org/2000/svg" version="1.1" viewBox="0 0 35.8 150">
  <!-- Generator: Adobe Illustrator 29.6.1, SVG Export Plug-In . SVG Version: 2.1.1 Build 9)  -->
  <defs>
    <style>
      .st0 {
        fill: #fff;
      }

      .st1 {
        fill: none;
      }
    </style>
  </defs>
  <path class="st0" d="M17.6,36.3c5.7-5.1,11.7-1.7,14.6,4.5-.1,17.5-1.3,35.2-.7,52.7.3,9.8,1.4,18.5,3.1,27.9,1.4,7.7,2.6,15.2-3.1,21.6-7.9,8.8-18.5,9.4-26.9.9-6.1-6.2-5.1-13-3.1-20.8.7-2.7,3.6-8.1,3.7-9.6.3-3.2-.8-9.2-.6-13.3.7-11.6,1.7-23.6,3.6-35,1.2-7,4.2-24.4,9.3-28.9Z"/>
  <g id="Layer_1-2">
    <rect class="st1" width="35.8" height="150"/>
    <path d="M17.5,36.3c5.8-5.1,11.7-1.7,14.6,4.5-.1,17.5-1.3,35.2-.7,52.7.3,9.8,1.4,18.5,3.1,27.9,1.4,7.7,2.6,15.2-3.1,21.6-7.9,8.8-18.5,9.4-26.9.9-6.1-6.2-5.1-13-3.1-20.8.7-2.7,3.6-8.1,3.7-9.6.3-3.2-.8-9.2-.6-13.3.7-11.6,1.7-23.6,3.6-35,1.2-7,4.2-24.4,9.3-28.9ZM30.7,110.8c-1.3-17.1-2.1-34.4-1.7-51.7.1-5.8,3.4-16.3-.8-21-9.5-10.6-14.5,12.3-15.7,17.9-3.9,17.4-5.2,36-5.3,53.9,8-7.2,16.3-7.6,23.5.8ZM16.2,106.8c-8.9,1.9-14.5,19.1-14.1,27s11.8,16.9,19.1,14.1c4.5-1.7,11.4-8.2,12-13.2,1.2-10.4-3-30.9-17-27.9h0Z"/>
  </g>
</svg>