<?xml version="1.0" encoding="UTF-8"?>
<svg id="Layer_2" data-name="Layer 2" xmlns="http://www.w3.org/2000/svg" viewBox="0 0 100 150">
  <defs>
    <style>
      .cls-1 {
        fill: none;
      }
    </style>
  </defs>
  <g id="Layer_1-2" data-name="Layer 1">
    <rect class="cls-1" width="100" height="150"/>
    <path d="M55.16,30.43c9.08-2.74,5.32,15.46,5.25,19.55-.3,19.31-.4,39.1,2.3,58.2,1.32,9.32,5.59,18.3,4.45,28.29-1.24,10.88-16.59,16.4-25.45,12.02-17.35-8.6-4.79-23.5-3.16-35.59,2.59-19.21,3.09-38.35,7.18-57.46.99-4.65,5.17-23.73,9.43-25.02ZM57.93,31.97c-3.08-2.75-7.79,14.46-8.14,15.77-5.26,19.73-6.89,42-8.63,62.29,6.27-6.68,12.01-7.96,19.29-1.68-2.5-19.3-2.93-38.89-2.54-58.37.11-5.77,2.14-11.92.03-18.01ZM51.01,105.99c-10.58.9-17.03,23.5-15.68,32.11.61,3.94,7.68,10.16,11.34,10.54,4.65.48,15.29-4.07,17.33-8.61,2.76-6.13-.05-21.38-3.39-27.22-1.58-2.76-6.17-7.1-9.61-6.81Z"/>
  </g>
</svg>