<?xml version="1.0" encoding="UTF-8"?>
<svg id="Layer_2" xmlns="http://www.w3.org/2000/svg" version="1.1" viewBox="0 0 35.8 150">
  <!-- Generator: Adobe Illustrator 29.6.1, SVG Export Plug-In . SVG Version: 2.1.1 Build 9)  -->
  <defs>
    <style>
      .st0 {
        fill: #fff;
      }

      .st1 {
        fill: none;
      }
    </style>
  </defs>
  <path class="st0" d="M23.1,30.4c9.1-2.7,5.3,15.5,5.2,19.5-.3,19.3-.4,39.1,2.3,58.2,1.3,9.3,5.6,18.3,4.4,28.3-1.2,10.9-16.6,16.4-25.5,12-17.4-8.6-4.8-23.5-3.2-35.6,2.6-19.2,3.1-38.3,7.2-57.5,1-4.7,5.2-23.7,9.4-25h0Z"/>
  <g id="Layer_1-2">
    <rect class="st1" width="35.8" height="150"/>
    <path d="M23.1,30.4c9.1-2.7,5.3,15.5,5.2,19.5-.3,19.3-.4,39.1,2.3,58.2,1.3,9.3,5.6,18.3,4.4,28.3-1.2,10.9-16.6,16.4-25.5,12-17.4-8.6-4.8-23.5-3.2-35.6,2.6-19.2,3.1-38.3,7.2-57.5,1-4.7,5.2-23.7,9.4-25h0ZM25.8,32c-3.1-2.8-7.8,14.5-8.1,15.8-5.3,19.7-6.9,42-8.6,62.3,6.3-6.7,12-8,19.3-1.7-2.5-19.3-2.9-38.9-2.5-58.4.1-5.8,2.1-11.9,0-18h0ZM18.9,106c-10.6.9-17,23.5-15.7,32.1.6,3.9,7.7,10.2,11.3,10.5,4.6.5,15.3-4.1,17.3-8.6,2.8-6.1,0-21.4-3.4-27.2-1.6-2.8-6.2-7.1-9.6-6.8h0Z"/>
  </g>
</svg>