<?xml version="1.0" encoding="UTF-8"?>
<svg id="Layer_2" data-name="Layer 2" xmlns="http://www.w3.org/2000/svg" viewBox="0 0 100 150">
  <defs>
    <style>
      .cls-1 {
        fill: none;
      }
    </style>
  </defs>
  <g id="Layer_1-2" data-name="Layer 1">
    <rect class="cls-1" width="100" height="150"/>
    <path d="M65.47,48.55c5.92-8.19,10.06-3.68,10.89,4.63,2.1,20.94-10.07,42.22-5.68,63.6.44,2.14,2.64,5.53,3.41,8.34,1.68,6.14,3.22,16.16-2.33,20.81-3.8,3.19-11.77,4.41-16.42,2.98-2.26-.69-4.38-4.38-5.53-4.58s-7.81,5.27-11.02,5.64c-3.55.4-10.5-2.56-12.67-5.42-6.46-8.51.41-19.96,1.5-28.48,2.52-19.53-7.28-57.1,14.06-69.03,1.97-1.1,3.73-2.65,5.8-1.06.83.63,1.23,3.91,2.84,2.58.25-.21,2.16-4.68,3.01-5.81,7.47-9.88,11.78-4.36,12.12,5.82ZM61.26,39.32c-1.45-.38-1.68.61-2.51,1.25-3.77,2.89-9.59,12.48-10.66,17.05-2.47,10.55-3.16,22.03,1.44,32.06l7.1-14.29c4.87-12.01,9.42-23.13,4.63-36.06ZM72.17,46.04c-1.4-.32-1.7.46-2.5,1.27-3.99,4.06-4.85,12.66-6.94,18.24-3.33,8.92-7.06,16.53-11.07,25.05-.54,1.14-.41,5.32-2.95,3.25-.24-.19-2.11-4.83-2.39-5.6-2.82-7.73-2.9-16.88-1.75-24.91.81-5.68,3.93-10.69,1.57-16.47-24.78,13.46-12.93,44.74-16.77,67.15,3.82-2.96,6.35-4.26,11.32-4.24,3.73.01,6,1.56,8.45,1.67,2.9.13,6.01-1.14,9.92-.69,3.2.37,6.13,1.74,8.9,3.26-3.19-23.28,10.73-45.24,4.2-67.99ZM67.76,115.93c-1.42-1.43-8.08-3.41-10.28-3.57-5.55-.42-8.24.02-14.33-.78-12.04-1.58-15.79,9.11-16.91,19.05-.94,8.33,1.05,17.35,11.25,17.55,4.69.09,10.1-6.45,12.46-6.46,2.3,0,4.59,5.28,7.56,5.86,5.02.98,14.06-1.64,15.34-7.29,1.13-4.99-.03-12.42-1.69-17.26-.39-1.13-2.86-6.56-3.39-7.1Z"/>
  </g>
</svg>