<?xml version="1.0" encoding="UTF-8"?>
<svg id="Layer_2" xmlns="http://www.w3.org/2000/svg" version="1.1" viewBox="0 0 53.2 150">
  <!-- Generator: Adobe Illustrator 29.6.1, SVG Export Plug-In . SVG Version: 2.1.1 Build 9)  -->
  <defs>
    <style>
      .st0 {
        fill: #fff;
      }

      .st1 {
        fill: none;
      }
    </style>
  </defs>
  <path class="st0" d="M42.1,48.5c5.9-8.2,10.1-3.7,10.9,4.6,2.1,20.9-10.1,42.2-5.7,63.6.4,2.1,2.6,5.5,3.4,8.3,1.7,6.1,3.2,16.2-2.3,20.8-3.8,3.2-11.8,4.4-16.4,3-2.3-.7-4.4-4.4-5.5-4.6s-7.8,5.3-11,5.6c-3.6.4-10.5-2.6-12.7-5.4-6.5-8.5.4-20,1.5-28.5,2.5-19.5-7.3-57.1,14.1-69,2-1.1,3.7-2.7,5.8-1.1.8.6,1.2,3.9,2.8,2.6.2-.2,2.2-4.7,3-5.8,7.5-9.9,11.8-4.4,12.1,5.8h0Z"/>
  <g id="Layer_1-2">
    <rect class="st1" width="53.2" height="150"/>
    <path d="M42.1,48.5c5.9-8.2,10.1-3.7,10.9,4.6,2.1,20.9-10.1,42.2-5.7,63.6.4,2.1,2.6,5.5,3.4,8.3,1.7,6.1,3.2,16.2-2.3,20.8-3.8,3.2-11.8,4.4-16.4,3-2.3-.7-4.4-4.4-5.5-4.6s-7.8,5.3-11,5.6c-3.6.4-10.5-2.6-12.7-5.4-6.5-8.5.4-20,1.5-28.5,2.5-19.5-7.3-57.1,14.1-69,2-1.1,3.7-2.7,5.8-1.1.8.6,1.2,3.9,2.8,2.6.2-.2,2.2-4.7,3-5.8,7.5-9.9,11.8-4.4,12.1,5.8h0ZM37.9,39.3c-1.5-.4-1.7.6-2.5,1.2-3.8,2.9-9.6,12.5-10.7,17-2.5,10.5-3.2,22,1.4,32.1l7.1-14.3c4.9-12,9.4-23.1,4.6-36.1h0ZM48.8,46c-1.4-.3-1.7.5-2.5,1.3-4,4.1-4.8,12.7-6.9,18.2-3.3,8.9-7.1,16.5-11.1,25.1-.5,1.1-.4,5.3-3,3.2-.2-.2-2.1-4.8-2.4-5.6-2.8-7.7-2.9-16.9-1.8-24.9.8-5.7,3.9-10.7,1.6-16.5C-2,60.3,9.8,91.6,6,114c3.8-3,6.4-4.3,11.3-4.2,3.7,0,6,1.6,8.4,1.7,2.9.1,6-1.1,9.9-.7,3.2.4,6.1,1.7,8.9,3.3-3.2-23.3,10.7-45.2,4.2-68h0ZM44.4,115.9c-1.4-1.4-8.1-3.4-10.3-3.6-5.5-.4-8.2,0-14.3-.8-12-1.6-15.8,9.1-16.9,19.1-.9,8.3,1,17.4,11.2,17.6,4.7,0,10.1-6.4,12.5-6.5,2.3,0,4.6,5.3,7.6,5.9,5,1,14.1-1.6,15.3-7.3,1.1-5,0-12.4-1.7-17.3-.4-1.1-2.9-6.6-3.4-7.1h0Z"/>
  </g>
</svg>