<?xml version="1.0" encoding="UTF-8"?>
<svg id="Layer_2" xmlns="http://www.w3.org/2000/svg" version="1.1" viewBox="0 0 48.5 150">
  <!-- Generator: Adobe Illustrator 29.6.1, SVG Export Plug-In . SVG Version: 2.1.1 Build 9)  -->
  <defs>
    <style>
      .st0 {
        fill: #fff;
      }

      .st1 {
        fill: none;
      }
    </style>
  </defs>
  <path class="st0" d="M26.7,46.3c1.7-1,1.6-5.8,6.5-5.7,4.2,0,3.6,4.9,5.1,7.5,7,13.1,8.7,17.6,7.9,33.3-.5,9.7-4.3,25.4-3,34.4,0,.4,3.1,4.6,3.9,6.7,3.2,8.8,1.2,19.1-8.2,22.9-6.8,2.7-8-1.5-11.5-1.4-2.1,0-5.8,4.7-8.8,5.4-10,2.7-17.9-3.3-18.5-13.5-.5-8.4,4.1-23.1,5-32.7,1.2-12.2,0-22.5,4.2-34.4,1.6-4.3,9.6-19.3,12.9-21.5,1.7-1.1,3.5-.4,4.5-1h0Z"/>
  <g id="Layer_1-2">
    <rect class="st1" width="48.5" height="150"/>
    <path d="M26.7,46.3c1.7-1,1.6-5.8,6.5-5.7,4.2,0,3.6,4.9,5.1,7.5,7,13.1,8.7,17.6,7.9,33.3-.5,9.7-4.3,25.4-3,34.4,0,.4,3.1,4.6,3.9,6.7,3.2,8.8,1.2,19.1-8.2,22.9-6.8,2.7-8-1.5-11.5-1.4-2.1,0-5.8,4.7-8.8,5.4-10,2.7-17.9-3.3-18.5-13.5-.5-8.4,4.1-23.1,5-32.7,1.2-12.2,0-22.5,4.2-34.4,1.6-4.3,9.6-19.3,12.9-21.5,1.7-1.1,3.5-.4,4.5-1h0ZM35.2,48.1c.8-.8-.8-8.7-4.5-4.1-3.1,3.9-1.4,6.6-2.2,10.4-2.6,12.3-6.6,23.4-4.9,36.6,1.5.3,1.7-.4,2.3-1.4,3.1-5.1,4.8-22.9,5.1-29.3.1-2.7-1.2-4.3-.4-7.9,1.1-4.9,3.9-3.5,4.6-4.2h0ZM26,48.2c-1.7-2-10.4,11.5-11.1,12.9-7.7,14.5-6,24.9-7.4,40.4-.5,5.4-1.7,11-2.5,16.4,1.8-1.2,3-2.8,5-3.8,4.5-2.3,18.8-3.5,24-2.9,2.6.3,4.9,1.3,7.1,2.5-.4-15.3,3.9-30.4,2.5-45.7-.3-3.5-3.7-19.4-8.7-18-3.6,1-1.9,15.2-2.2,18.8-.5,7-2.2,15.3-5.1,21.7-1.2,2.7-3.9,3.9-3.3,7.2-3.3.1-1.6-2-1.9-3.5-2.2-10.4-1.3-18.7.6-29.2,1-5.7,4.2-10.5,2.9-16.8h0ZM5.4,120.7c-6.1,10.3-3.8,31.4,12.5,27.2,2.9-.8,5.4-5.3,7.8-5.7,6.4-1,7,5.6,14.7-.4,9.8-7.7,6.4-25.7-5-28.6-4.4-1.1-19.7.3-23.8,2.3-1.4.7-5.4,3.9-6.1,5.2h0Z"/>
  </g>
</svg>