<?xml version="1.0" encoding="UTF-8"?>
<svg id="Layer_2" data-name="Layer 2" xmlns="http://www.w3.org/2000/svg" viewBox="0 0 100 150">
  <defs>
    <style>
      .cls-1 {
        fill: none;
      }
    </style>
  </defs>
  <g id="Layer_1-2" data-name="Layer 1">
    <rect class="cls-1" width="100" height="150"/>
    <path d="M52.46,46.32c1.71-.95,1.58-5.83,6.52-5.73,4.18.08,3.64,4.86,5.09,7.53,7.04,13.06,8.73,17.6,7.93,33.27-.49,9.68-4.34,25.42-3.05,34.42.05.38,3.13,4.56,3.88,6.65,3.15,8.77,1.19,19.08-8.22,22.89-6.79,2.74-8-1.52-11.54-1.42-2.14.06-5.84,4.66-8.78,5.44-10.03,2.66-17.86-3.32-18.48-13.47-.52-8.45,4.07-23.14,5.02-32.73,1.21-12.24-.1-22.51,4.19-34.42,1.55-4.29,9.55-19.32,12.95-21.46,1.73-1.09,3.45-.39,4.49-.97ZM60.97,48.13c.76-.85-.76-8.71-4.48-4.07-3.13,3.89-1.43,6.57-2.24,10.35-2.63,12.34-6.63,23.39-4.95,36.6,1.47.3,1.69-.37,2.33-1.44,3.06-5.14,4.82-22.88,5.14-29.28.13-2.69-1.25-4.26-.39-7.94,1.14-4.86,3.95-3.5,4.59-4.21ZM51.81,48.2c-1.73-1.95-10.35,11.53-11.06,12.86-7.71,14.5-5.98,24.93-7.41,40.43-.5,5.44-1.66,10.98-2.51,16.37,1.83-1.15,2.99-2.8,4.98-3.83,4.46-2.3,18.82-3.48,23.98-2.89,2.63.3,4.86,1.29,7.12,2.52-.38-15.28,3.87-30.39,2.51-45.73-.31-3.48-3.73-19.44-8.69-18.01-3.56,1.03-1.94,15.2-2.22,18.83-.53,7-2.24,15.33-5.13,21.73-1.2,2.65-3.88,3.95-3.26,7.23-3.33.14-1.59-2.03-1.91-3.53-2.25-10.44-1.29-18.74.65-29.21,1.05-5.7,4.16-10.52,2.94-16.77ZM31.15,120.69c-6.07,10.32-3.75,31.38,12.49,27.19,2.92-.75,5.37-5.29,7.8-5.68,6.39-1.04,6.95,5.65,14.66-.39,9.84-7.71,6.44-25.66-5.03-28.58-4.42-1.13-19.68.26-23.81,2.26-1.45.7-5.38,3.94-6.12,5.2Z"/>
  </g>
</svg>