<?xml version="1.0" encoding="UTF-8"?>
<svg id="Layer_2" xmlns="http://www.w3.org/2000/svg" version="1.1" viewBox="0 0 48.5 150">
  <!-- Generator: Adobe Illustrator 29.6.1, SVG Export Plug-In . SVG Version: 2.1.1 Build 9)  -->
  <defs>
    <style>
      .st0 {
        fill: #fff;
      }

      .st1 {
        fill: none;
      }
    </style>
  </defs>
  <path class="st0" d="M40.3,59.5c.2.3,5.7-2.6,5.9,3.8.2,5.9-3.8,16.8-4.3,24.3-.6,9.7-.1,23.1,1.9,32.6.6,3,2.9,5.4,3.2,9.5.4,6.5-3.1,16.6-10,18.5-7.9,2.1-8-4.4-11.4-4.4s-8.1,7.3-14.7,6.1c-8.6-1.6-10.3-11.1-9.2-18.5.3-2.2,2-4.3,2.4-6.8,2.5-18.2.2-35.5,10.6-52.3,2.5-4.1,8.6-13.8,12.9-7.6.5-2.8,6.4-9.7,8.9-10.1,5.5-.9,3,4.1,3.7,5.1h0Z"/>
  <g id="Layer_1-2">
    <rect class="st1" width="48.5" height="150"/>
    <path d="M40.3,59.5c.2.3,5.7-2.6,5.9,3.8.2,5.9-3.8,16.8-4.3,24.3-.6,9.7-.1,23.1,1.9,32.6.6,3,2.9,5.4,3.2,9.5.4,6.5-3.1,16.6-10,18.5-7.9,2.1-8-4.4-11.4-4.4s-8.1,7.3-14.7,6.1c-8.6-1.6-10.3-11.1-9.2-18.5.3-2.2,2-4.3,2.4-6.8,2.5-18.2.2-35.5,10.6-52.3,2.5-4.1,8.6-13.8,12.9-7.6.5-2.8,6.4-9.7,8.9-10.1,5.5-.9,3,4.1,3.7,5.1h0ZM24.3,89.8c.8-8,3.8-15.8,8.2-22.4,1.7-2.6,5.9-5.3,6.1-8.3.3-4.3-2.6-2.4-4.6-.4-5.7,5.6-9.6,16.2-10.4,24.1,0,0,.7,7,.7,7ZM43.7,61.2c-2.8-2.8-11.2,10.2-12.3,12.4-3.8,7.7-6.2,18.5-6.1,27h-2.5c.8-4-1.4-6.8-1.7-10.4-.8-8.9,3.4-17.1,4.2-25.7-.8-.9-4.1,2.7-4.6,3.3-11.7,13.4-13,35-13.8,52.1l8.3-6.3c9.3-4.7,18.2-2.4,26.1,3.8-2.5-14.4-2.2-28.6.3-43,.8-4.5,3.2-8.4,2.3-13.3h0ZM7.8,146.6c7,5.6,13.5-4.7,17.8-4.7,5.2,0,6,7.6,12.1,3.7,7.7-4.9,9.1-18.3,3.4-25.2-7-8.4-19.5-9.3-28.1-2.9-7.7,5.7-14.1,22-5.2,29.1h0Z"/>
  </g>
</svg>