<?xml version="1.0" encoding="UTF-8"?>
<svg id="Layer_2" data-name="Layer 2" xmlns="http://www.w3.org/2000/svg" viewBox="0 0 100 150">
  <defs>
    <style>
      .cls-1 {
        fill: none;
      }
    </style>
  </defs>
  <g id="Layer_1-2" data-name="Layer 1">
    <rect class="cls-1" width="100" height="150"/>
    <path d="M40.19.36c1.64-.49,17.29-.48,18.97.01,5.86,1.71,3.61,13.92,3.1,18.7-1.74,16.22-4.84,32.29-5.85,48.71-.75,12.19.59,28.07-.92,39.37-1.2,9.01-6.46,8.14-9.4.31-7.62-20.29-3.99-50.85-5.65-72.41-.58-7.55-6.18-27.2-2.04-33.13.51-.74.87-1.28,1.8-1.56ZM57.66,1.88c-4.11-.73-12.13,0-16.79,0-.59,0-1.13,1.4-1.26,2.1-.99,5.38,1.47,29.01,4.18,33.6,3.51,5.96,11.35,5.1,13.36-1.79,1.7-5.79,4.53-26.22,3.08-31.47-.32-1.16-1.47-2.24-2.57-2.44ZM44.13,40.96c-.38-.31-.24-2.28-1.17-.88.74,23.63-1.68,49.89,7.97,71.76,3.97-1.85,1.36-21.14,2.07-25.63l3.38-44.87c-4,2.43-8.56,2.7-12.26-.37Z"/>
  </g>
</svg>