<?xml version="1.0" encoding="UTF-8"?>
<svg id="Layer_2" xmlns="http://www.w3.org/2000/svg" version="1.1" viewBox="0 0 26.2 150">
  <!-- Generator: Adobe Illustrator 29.6.1, SVG Export Plug-In . SVG Version: 2.1.1 Build 9)  -->
  <defs>
    <style>
      .st0 {
        fill: #fff;
      }

      .st1 {
        fill: none;
      }
    </style>
  </defs>
  <path class="st0" d="M3.3.4c1.6-.5,17.3-.5,19,0,5.9,1.7,3.6,13.9,3.1,18.7-1.7,16.2-4.8,32.3-5.9,48.7-.8,12.2.6,28.1-.9,39.4-1.2,9-6.5,8.1-9.4.3C1.6,87.2,5.2,56.6,3.5,35.1,3,27.5-2.6,7.9,1.5,1.9c.5-.7.9-1.3,1.8-1.6Z"/>
  <g id="Layer_1-2">
    <rect class="st1" width="26.2" height="150"/>
    <path d="M3.3.4c1.6-.5,17.3-.5,19,0,5.9,1.7,3.6,13.9,3.1,18.7-1.7,16.2-4.8,32.3-5.9,48.7-.8,12.2.6,28.1-.9,39.4-1.2,9-6.5,8.1-9.4.3C1.6,87.2,5.2,56.6,3.5,35,3,27.5-2.6,7.8,1.5,1.9c.5-.7.9-1.3,1.8-1.6ZM20.8,1.9c-4.1-.7-12.1,0-16.8,0s-1.1,1.4-1.3,2.1c-1,5.4,1.5,29,4.2,33.6,3.5,6,11.4,5.1,13.4-1.8,1.7-5.8,4.5-26.2,3.1-31.5-.3-1.2-1.5-2.2-2.6-2.4ZM7.2,41c-.4-.3-.2-2.3-1.2-.9.7,23.6-1.7,49.9,8,71.8,4-1.8,1.4-21.1,2.1-25.6l3.4-44.9c-4,2.4-8.6,2.7-12.3-.4h0Z"/>
  </g>
</svg>