<?xml version="1.0" encoding="UTF-8"?>
<svg id="Layer_2" xmlns="http://www.w3.org/2000/svg" version="1.1" viewBox="0 0 26.9 150">
  <!-- Generator: Adobe Illustrator 29.6.1, SVG Export Plug-In . SVG Version: 2.1.1 Build 9)  -->
  <defs>
    <style>
      .st0 {
        fill: #fff;
      }

      .st1 {
        fill: none;
      }
    </style>
  </defs>
  <path class="st0" d="M2.5,0h19.7c3.9,0,4.7,9.3,4.7,12.2-.2,10.3-2.5,21.6-3.5,31.8-2.2,21.9-4.6,43.5-5.8,65.5-.1,2.5.8,11.6-.8,12.7-7.1,5-9.5-15.8-10-19.5-3.3-22.2-.8-43.6-2.1-65.2-.4-7.4-3.8-16.5-3.9-25.3,0-4.3.6-8.1,1.7-12.2Z"/>
  <g id="Layer_1-2">
    <rect class="st1" width="26.9" height="150"/>
    <path d="M2.5,0h19.7c3.9,0,4.7,9.3,4.7,12.2-.2,10.3-2.5,21.6-3.5,31.8-2.2,21.9-4.6,43.5-5.8,65.5-.1,2.5.8,11.6-.8,12.7-7.1,5-9.5-15.8-10-19.5-3.3-22.2-.8-43.6-2.1-65.2-.4-7.4-3.8-16.5-3.9-25.3,0-4.3.6-8.1,1.7-12.2ZM4.2,1.7c-2.2,7.3,0,38.1,6.9,41.3,3.6,1.7,7.2-.9,9.1-4,2.8-4.6,5.5-30,3.5-34.6-.3-.6-2-2.7-2.3-2.7H4.2ZM15.1,120.9l5.9-79.7c-1.4.2-1.1,1.9-2.5,2.9-4.3,3.3-8.4,1.3-11.8-2.1.4,22.2-.8,46.2,3.7,68,.5,2.6,1.6,7.7,2.8,9.8.5,1,0,1.4,1.9,1.1h0Z"/>
  </g>
</svg>