<?xml version="1.0" encoding="UTF-8"?>
<svg id="Layer_2" data-name="Layer 2" xmlns="http://www.w3.org/2000/svg" viewBox="0 0 100 150">
  <defs>
    <style>
      .cls-1 {
        fill: none;
      }
    </style>
  </defs>
  <g id="Layer_1-2" data-name="Layer 1">
    <rect class="cls-1" width="100" height="150"/>
    <path d="M38.66,0h19.73c3.91,0,4.72,9.3,4.66,12.2-.22,10.31-2.47,21.65-3.49,31.78-2.2,21.86-4.59,43.54-5.82,65.53-.14,2.49.77,11.61-.75,12.68-7.11,5.02-9.49-15.85-10.02-19.47-3.28-22.24-.81-43.61-2.08-65.24-.43-7.41-3.79-16.48-3.94-25.27-.07-4.32.61-8.07,1.71-12.21ZM40.34,1.68c-2.24,7.33.05,38.08,6.91,41.35,3.57,1.7,7.23-.9,9.06-3.97,2.76-4.62,5.52-29.98,3.54-34.64-.26-.62-1.98-2.73-2.3-2.73h-17.21ZM51.25,120.87l5.87-79.73c-1.36.15-1.15,1.89-2.51,2.93-4.29,3.27-8.42,1.3-11.75-2.09.38,22.24-.76,46.19,3.74,68.02.53,2.57,1.61,7.7,2.77,9.81.53.98-.02,1.42,1.88,1.07Z"/>
  </g>
</svg>