<?xml version="1.0" encoding="UTF-8"?>
<svg id="Layer_2" xmlns="http://www.w3.org/2000/svg" version="1.1" viewBox="0 0 35.7 150">
  <!-- Generator: Adobe Illustrator 29.6.1, SVG Export Plug-In . SVG Version: 2.1.1 Build 9)  -->
  <defs>
    <style>
      .st0 {
        fill: #fff;
      }

      .st1 {
        fill: none;
      }
    </style>
  </defs>
  <path class="st0" d="M15.1,0c5-1,12.8,6.9,15.8,10.7,9.2,12,2.7,20.8.8,32.7-2,12.2-3.1,31.4-3.7,44.1-.7,15.7,0,31.5,2.5,47-1.3,4.9-5.6,2.4-8.4,0C5.2,120.2,6.3,64.4,5,43.2c-.6-8.6-6.3-13.8-4.7-26.1C1.1,10.7,8.6,1.4,15.1,0Z"/>
  <g id="Layer_1-2">
    <rect class="st1" width="35.7" height="150"/>
    <path d="M15.1,0c5-1,12.8,6.9,15.8,10.7,9.2,12,2.7,20.8.8,32.7-2,12.2-3.1,31.4-3.7,44.1-.7,15.7,0,31.5,2.5,47-1.3,4.9-5.6,2.4-8.4,0C5.2,120.2,6.3,64.4,5,43.2c-.6-8.6-6.3-13.8-4.7-26.1C1.1,10.7,8.6,1.4,15.1,0ZM15.9,1.7c-2,.3-7.5,4.6-8.9,6.3C-.2,16.4,1.9,27,5,36.6c2.6,7.9,9.5,20.8,19.1,12.8,8.1-6.7,11.5-25.2,6.8-34.5-1.8-3.5-11.1-13.8-14.9-13.2h0ZM29.6,46.9c-4.1,5.1-10,8.9-16.5,5.2l-6.2-4.8c1.4,21.7,1.6,45,7,66.1,2.2,8.7,5.5,17.7,13.6,22.5-.5-14-2.9-28.2-2.1-42.4l4.2-46.5h0Z"/>
  </g>
</svg>