<?xml version="1.0" encoding="UTF-8"?>
<svg id="Layer_2" data-name="Layer 2" xmlns="http://www.w3.org/2000/svg" viewBox="0 0 100 150">
  <defs>
    <style>
      .cls-1 {
        fill: none;
      }
    </style>
  </defs>
  <g id="Layer_1-2" data-name="Layer 1">
    <rect class="cls-1" width="100" height="150"/>
    <path d="M47.26.09c4.97-1,12.81,6.86,15.77,10.71,9.23,12.01,2.7,20.83.78,32.72-1.97,12.24-3.14,31.42-3.73,44.11-.73,15.69.07,31.51,2.51,46.98-1.29,4.89-5.64,2.44-8.42.05-16.8-14.4-15.69-70.29-17.03-91.41-.55-8.65-6.31-13.8-4.7-26.06.85-6.47,8.35-15.79,14.82-17.1ZM48.1,1.73c-2.02.3-7.46,4.61-8.89,6.27-7.23,8.41-5.16,18.97-2.03,28.64,2.56,7.89,9.55,20.79,19.12,12.8,8.07-6.74,11.48-25.21,6.75-34.47-1.8-3.52-11.08-13.82-14.95-13.24ZM61.74,46.91c-4.09,5.14-9.97,8.88-16.51,5.18l-6.15-4.76c1.44,21.66,1.6,44.97,6.97,66.06,2.21,8.69,5.51,17.71,13.61,22.48-.55-13.99-2.94-28.19-2.14-42.42l4.22-46.55Z"/>
  </g>
</svg>