<?xml version="1.0" encoding="UTF-8"?>
<svg id="Layer_2" data-name="Layer 2" xmlns="http://www.w3.org/2000/svg" viewBox="0 0 100 150">
  <defs>
    <style>
      .cls-1 {
        fill: none;
      }
    </style>
  </defs>
  <g id="Layer_1-2" data-name="Layer 1">
    <rect class="cls-1" width="100" height="150"/>
    <path d="M63.66,9.65c5.75,6.78,2.94,12.24,1.57,19.87-2.83,15.79-4.78,33.44-4.67,49.96.06,9.39,2.87,21.31,2.61,30.19-.32,10.92-7.81,11.79-12.42,2.29-11.2-23.07-11.81-61.18-16.76-86.48-1.38-7.05-2.42-11.11,2.78-16.87.87-.96,9.52-8.12,10.15-8.32,1.87-.57,4.11-.26,5.91.47,1.26.51,9.79,7.65,10.83,8.88ZM42.43,37.6c14.08,12.86,26.87-13.52,20.85-24.63-1.17-2.16-11.13-10.87-13.25-11.17-2.38-.34-8.93,5.52-10.88,7.53-6.8,7.01-3.28,22.29,3.28,28.27ZM60.61,37.07c-2.53,5.64-11.17,7.18-16.42,4.23l-5.42-4.65c1.02,18.81,3.91,38.56,8.64,56.83.99,3.82,6.02,24.65,11.01,23.28,4.61-1.27.61-20.62.45-24.67-.72-18.42.69-34.89,2.47-53.03.09-.89.64-2.21-.74-1.99Z"/>
  </g>
</svg>