<?xml version="1.0" encoding="UTF-8"?>
<svg id="Layer_2" xmlns="http://www.w3.org/2000/svg" version="1.1" viewBox="0 0 34.3 150">
  <!-- Generator: Adobe Illustrator 29.6.1, SVG Export Plug-In . SVG Version: 2.1.1 Build 9)  -->
  <defs>
    <style>
      .st0 {
        fill: #fff;
      }

      .st1 {
        fill: none;
      }
    </style>
  </defs>
  <path class="st0" d="M30.8,9.6c5.8,6.8,2.9,12.2,1.6,19.9-2.8,15.8-4.8,33.4-4.7,50,0,9.4,2.9,21.3,2.6,30.2-.3,10.9-7.8,11.8-12.4,2.3C6.7,88.9,6.1,50.8,1.1,25.5-.3,18.4-1.3,14.4,3.9,8.6,4.8,7.6,13.4.5,14,.3c1.9-.6,4.1-.3,5.9.5,1.3.5,9.8,7.7,10.8,8.9h0Z"/>
  <g id="Layer_1-2">
    <rect class="st1" width="34.3" height="150"/>
    <path d="M30.8,9.6c5.8,6.8,2.9,12.2,1.6,19.9-2.8,15.8-4.8,33.4-4.7,50,0,9.4,2.9,21.3,2.6,30.2-.3,10.9-7.8,11.8-12.4,2.3C6.7,88.9,6.1,50.8,1.1,25.5-.3,18.4-1.3,14.4,3.9,8.6,4.8,7.7,13.4.5,14.1.3c1.9-.6,4.1-.3,5.9.5,1.3.5,9.8,7.7,10.8,8.9h0ZM9.6,37.6c14.1,12.9,26.9-13.5,20.9-24.6-1.2-2.2-11.1-10.9-13.2-11.2-2.4-.3-8.9,5.5-10.9,7.5-6.8,7-3.3,22.3,3.3,28.3ZM27.7,37.1c-2.5,5.6-11.2,7.2-16.4,4.2l-5.4-4.7c1,18.8,3.9,38.6,8.6,56.8,1,3.8,6,24.7,11,23.3,4.6-1.3.6-20.6.5-24.7-.7-18.4.7-34.9,2.5-53,0-.9.6-2.2-.7-2h0Z"/>
  </g>
</svg>