<?xml version="1.0" encoding="UTF-8"?>
<svg id="Layer_2" data-name="Layer 2" xmlns="http://www.w3.org/2000/svg" viewBox="0 0 100 150">
  <defs>
    <style>
      .cls-1 {
        fill: none;
      }
    </style>
  </defs>
  <g id="Layer_1-2" data-name="Layer 1">
    <rect class="cls-1" width="100" height="150"/>
    <path d="M48.35.03c3.09-.53,12.48,5.23,14.89,7.42,4.94,4.48,5.16,9.95,4.52,16.26-2.58,25.36-9.56,51.67-10.04,77.33-.06,3.33,3.08,19.79-3.7,19.75-5.53-.03-11.67-20.35-12.76-25.04-4.62-19.82-2.73-40.14-5.5-59.97-1.13-8.06-7.58-20.83-.54-27.83,1.5-1.49,11.28-7.6,13.14-7.91ZM49.1,1.79c-3.79.39-13.78,8.06-14.62,12.14-1.67,8.12,3.18,26.47,12.36,29.22,15.09,4.52,22.4-21.25,17-31.26-1.47-2.73-11.86-10.4-14.74-10.1ZM62.82,38.5c-7.55,10.06-17.2,8.95-25.17,0,3.36,16.3,1.57,33.23,4.43,49.7,1.82,10.48,5.13,20.96,10.68,30.04,1.16.23,1.38-.05,2.04-.88,2.5-3.18,1-21.08,1.27-26.43.59-11.6,3.48-22.98,4.95-34.5.76-5.94,1.3-11.96,1.79-17.93Z"/>
  </g>
</svg>