<?xml version="1.0" encoding="UTF-8"?>
<svg id="Layer_2" xmlns="http://www.w3.org/2000/svg" version="1.1" viewBox="0 0 36 150">
  <!-- Generator: Adobe Illustrator 29.6.1, SVG Export Plug-In . SVG Version: 2.1.1 Build 9)  -->
  <defs>
    <style>
      .st0 {
        fill: #fff;
      }

      .st1 {
        fill: none;
      }
    </style>
  </defs>
  <path class="st0" d="M16.4,0c3.1-.5,12.5,5.2,14.9,7.4,4.9,4.5,5.2,9.9,4.5,16.3-2.6,25.4-9.6,51.7-10,77.3,0,3.3,3.1,19.8-3.7,19.8-5.5,0-11.7-20.3-12.8-25-4.6-19.8-2.7-40.1-5.5-60-1.1-8.1-7.6-20.8-.5-27.8C4.7,6.5,14.5.4,16.4,0Z"/>
  <g id="Layer_1-2">
    <rect class="st1" width="36" height="150"/>
    <path d="M16.4,0c3.1-.5,12.5,5.2,14.9,7.4,4.9,4.5,5.2,9.9,4.5,16.3-2.6,25.4-9.6,51.7-10,77.3,0,3.3,3.1,19.8-3.7,19.8-5.5,0-11.7-20.3-12.8-25-4.6-19.8-2.7-40.1-5.5-60-1.1-8.1-7.6-20.8-.5-27.8C4.7,6.5,14.5.3,16.4,0ZM17.1,1.8c-3.8.4-13.8,8.1-14.6,12.1-1.7,8.1,3.2,26.5,12.4,29.2,15.1,4.5,22.4-21.2,17-31.3-1.5-2.7-11.9-10.4-14.7-10.1ZM30.9,38.5c-7.6,10.1-17.2,9-25.2,0,3.4,16.3,1.6,33.2,4.4,49.7,1.8,10.5,5.1,21,10.7,30,1.2.2,1.4,0,2-.9,2.5-3.2,1-21.1,1.3-26.4.6-11.6,3.5-23,5-34.5.8-5.9,1.3-12,1.8-17.9h0Z"/>
  </g>
</svg>