<?xml version="1.0" encoding="UTF-8"?>
<svg id="Layer_2" data-name="Layer 2" xmlns="http://www.w3.org/2000/svg" viewBox="0 0 100 150">
  <defs>
    <style>
      .cls-1 {
        fill: none;
      }
    </style>
  </defs>
  <g id="Layer_1-2" data-name="Layer 1">
    <rect class="cls-1" width="100" height="150"/>
    <path d="M26.76.25c7.43-1.51,10.73,4.34,14.2,4.68,2.58.25,7.92-4.58,15.63-3,2.86.59,6.18,4.01,8.13,4.49,2.89.7,5.91-2.19,9.7,1.18,3.27,2.91,2.7,15.18,1.87,19.53-.7,3.66-2.62,6.64-3.15,10.28-2.17,15.1-1.19,35.06,2.1,49.96,1.47,6.67,7.65,20.51,5.92,26.06-1.97,6.32-7.04,1.58-10.09-.91-4.22-3.45-7.37-7.89-10.11-12.55-2.3-3.91-12.71-28.19-14.27-28.55-2.84-.67-4.66,9.32-4.63,11.29.18,9.49,9.7,20.34,4.95,28.47-4.13,7.08-14.44-7.66-16.58-11.74-3-5.74-5.24-15.26-5.96-21.74-1.56-13.93,2.89-27.95-.06-41.91-.66-3.09-3.2-6.82-4.18-10.09-2.27-7.59-3.94-23.32,6.52-25.44ZM26.35,34.26c3.87,3.58,15.02.38,20.29,1.12,3.39.48,6.61,2.9,10.37,3.06,3.41.14,7.84-1,11.7-.37,5.5-3.98,9.54-28.18,2.15-30.31-2.54-.73-4.46.82-6.36.53-2.23-.34-5.97-4.29-9.45-4.83-7.67-1.19-11.5,4.16-13.36,4.16s-7.71-5.95-12.62-5.92c-5.25.03-8.85,7.56-8.87,12.2-.01,3.31,4.02,18.39,6.15,20.36ZM70.62,39.51c-3.05,1.67-5.42-.02-7.97-.01-9.04.03-9.68-1.52-16.86-2.43-5.74-.73-12.55,1.99-18.81-.08.08,6.06,1.24,11.97.87,18.08-.73,12.38-2.42,18.25.53,31.3,2.24,9.88,7.1,19.71,15.81,25.32,5.53-7.54-2.17-14.83-3.41-22.61-.63-3.94-.9-17.82,3.56-19.19,6.26-1.93,6.06,3.81,7.93,7.7,6.41,13.34,12.71,29.87,25.89,37.47,2.34-9.46-3.47-18.86-5.45-28.53-3.24-15.85-3.47-30.92-2.1-47.01Z"/>
  </g>
</svg>