<?xml version="1.0" encoding="UTF-8"?>
<svg id="Layer_2" xmlns="http://www.w3.org/2000/svg" version="1.1" viewBox="0 0 62.9 150">
  <!-- Generator: Adobe Illustrator 29.6.1, SVG Export Plug-In . SVG Version: 2.1.1 Build 9)  -->
  <defs>
    <style>
      .st0 {
        fill: #fff;
      }

      .st1 {
        fill: none;
      }
    </style>
  </defs>
  <path class="st0" d="M8.2.2c7.4-1.5,10.7,4.3,14.2,4.7,2.6.2,7.9-4.6,15.6-3,2.9.6,6.2,4,8.1,4.5,2.9.7,5.9-2.2,9.7,1.2,3.3,2.9,2.7,15.2,1.9,19.5-.7,3.7-2.6,6.6-3.2,10.3-2.2,15.1-1.2,35.1,2.1,50,1.5,6.7,7.7,20.5,5.9,26.1-2,6.3-7,1.6-10.1-.9-4.2-3.4-7.4-7.9-10.1-12.6-2.3-3.9-12.7-28.2-14.3-28.6-2.8-.7-4.7,9.3-4.6,11.3.2,9.5,9.7,20.3,5,28.5-4.1,7.1-14.4-7.7-16.6-11.7-3-5.7-5.2-15.3-6-21.7-1.6-13.9,2.9-28,0-41.9-.7-3.1-3.2-6.8-4.2-10.1C-.6,18.1-2.2,2.4,8.2.2Z"/>
  <g id="Layer_1-2">
    <rect class="st1" width="62.9" height="150"/>
    <path d="M8.2.2c7.4-1.5,10.7,4.3,14.2,4.7,2.6.2,7.9-4.6,15.6-3,2.9.6,6.2,4,8.1,4.5,2.9.7,5.9-2.2,9.7,1.2,3.3,2.9,2.7,15.2,1.9,19.5-.7,3.7-2.6,6.6-3.2,10.3-2.2,15.1-1.2,35.1,2.1,50,1.5,6.7,7.7,20.5,5.9,26.1-2,6.3-7,1.6-10.1-.9-4.2-3.4-7.4-7.9-10.1-12.6-2.3-3.9-12.7-28.2-14.3-28.6-2.8-.7-4.7,9.3-4.6,11.3.2,9.5,9.7,20.3,5,28.5-4.1,7.1-14.4-7.7-16.6-11.7-3-5.7-5.2-15.3-6-21.7-1.6-13.9,2.9-28,0-41.9-.7-3.1-3.2-6.8-4.2-10.1C-.6,18.1-2.2,2.4,8.2.2ZM7.8,34.3c3.9,3.6,15,.4,20.3,1.1,3.4.5,6.6,2.9,10.4,3.1,3.4.1,7.8-1,11.7-.4,5.5-4,9.5-28.2,2.2-30.3-2.5-.7-4.5.8-6.4.5-2.2-.3-6-4.3-9.5-4.8-7.7-1.2-11.5,4.2-13.4,4.2S15.4,1.7,10.5,1.7c-5.2,0-8.9,7.6-8.9,12.2,0,3.3,4,18.4,6.2,20.4h0ZM52.1,39.5c-3,1.7-5.4,0-8,0-9,0-9.7-1.5-16.9-2.4-5.7-.7-12.6,2-18.8,0,0,6.1,1.2,12,.9,18.1-.7,12.4-2.4,18.2.5,31.3,2.2,9.9,7.1,19.7,15.8,25.3,5.5-7.5-2.2-14.8-3.4-22.6-.6-3.9-.9-17.8,3.6-19.2,6.3-1.9,6.1,3.8,7.9,7.7,6.4,13.3,12.7,29.9,25.9,37.5,2.3-9.5-3.5-18.9-5.5-28.5-3.2-15.8-3.5-30.9-2.1-47h0Z"/>
  </g>
</svg>