<?xml version="1.0" encoding="UTF-8"?>
<svg id="Layer_2" data-name="Layer 2" xmlns="http://www.w3.org/2000/svg" viewBox="0 0 100 150">
  <defs>
    <style>
      .cls-1 {
        fill: none;
      }
    </style>
  </defs>
  <g id="Layer_1-2" data-name="Layer 1">
    <rect class="cls-1" y="0" width="100" height="150"/>
    <path d="M47.53,67.59c1.23,4.93,1.9,10.01,3.09,14.95,1.32,5.48,5.06,14.22,5.25,19.18.33,8.27-9.11,3.57-12.54-.14-12.3-13.31-15.31-53.96-18.66-71.99-.28-1.49-1.66-2.71-1.92-3.95-2.3-10.76-2.26-29.94,13.86-24.77,3.25,1.04,7.96,5.47,10.48,5.51s6.77-3.5,10.29-4.06c13.09-2.09,17.34,8.08,16.17,19.53-2.04,20-7.62,36.89-1.27,57.5,1.93,6.26,8.61,17.15,5,23.45-4.28,7.47-14.51-9.48-16.47-12.83-3.76-6.42-6.43-14.28-10.6-20.45-.73-1.08-.95-2.29-2.68-1.93ZM29.66,2.3c-7.98,1.83-7.54,24.5-.05,29.07,6.28,3.83,11.86.21,18.27,1.04,7.04.92,8.61,5.18,16.72-.22,11-7.32,8.59-30.65-6.38-28.2-3.8.62-8.16,4.8-11.13,4.74-4.9-.1-8.69-8.45-17.43-6.44ZM75.22,102.84c2.55-10.48-5.12-19.94-7.17-30.18-2.76-13.78-.12-28.33,2.13-42.01-5.45,3.75-9.11,6.78-16.16,5.67-2.53-.4-4.96-2.15-7.77-2.34-6.09-.43-12.8,3.06-18.86-1.65,1.81,15.5,4.21,31.5,8.45,46.52,2.56,9.06,6.6,24.57,17.56,25.67,2.2-2.21-10.61-33.63-7.17-38.65,2.63-3.84,6.65,3.65,7.85,5.66,4.54,7.59,7.49,16.91,12.9,24.04.87,1.15,7.14,8.27,8.24,7.28Z"/>
  </g>
</svg>