<?xml version="1.0" encoding="UTF-8"?>
<svg id="Layer_2" xmlns="http://www.w3.org/2000/svg" version="1.1" viewBox="0 0 56.7 150">
  <!-- Generator: Adobe Illustrator 29.6.1, SVG Export Plug-In . SVG Version: 2.1.1 Build 9)  -->
  <defs>
    <style>
      .st0 {
        fill: #fff;
      }

      .st1 {
        fill: none;
      }
    </style>
  </defs>
  <path class="st0" d="M25.9,67.6c1.2,4.9,1.9,10,3.1,14.9,1.3,5.5,5.1,14.2,5.2,19.2.3,8.3-9.1,3.6-12.5-.1C9.4,88.3,6.4,47.6,3,29.6c-.3-1.5-1.7-2.7-1.9-4C-1.2,14.9-1.2-4.3,14.9.9c3.2,1,8,5.5,10.5,5.5s6.8-3.5,10.3-4.1c13.1-2.1,17.3,8.1,16.2,19.5-2,20-7.6,36.9-1.3,57.5,1.9,6.3,8.6,17.2,5,23.5-4.3,7.5-14.5-9.5-16.5-12.8-3.8-6.4-6.4-14.3-10.6-20.4-.7-1.1-1-2.3-2.7-1.9Z"/>
  <g id="Layer_1-2">
    <rect class="st1" width="56.7" height="150"/>
    <path d="M25.9,67.6c1.2,4.9,1.9,10,3.1,14.9,1.3,5.5,5.1,14.2,5.2,19.2.3,8.3-9.1,3.6-12.5-.1C9.4,88.3,6.4,47.6,3,29.6c-.3-1.5-1.7-2.7-1.9-4C-1.2,14.9-1.2-4.3,14.9.9c3.2,1,8,5.5,10.5,5.5s6.8-3.5,10.3-4.1c13.1-2.1,17.3,8.1,16.2,19.5-2,20-7.6,36.9-1.3,57.5,1.9,6.3,8.6,17.2,5,23.5-4.3,7.5-14.5-9.5-16.5-12.8-3.8-6.4-6.4-14.3-10.6-20.4-.7-1.1-1-2.3-2.7-1.9ZM8,2.3c-8,1.8-7.5,24.5,0,29.1,6.3,3.8,11.9.2,18.3,1,7,.9,8.6,5.2,16.7-.2,11-7.3,8.6-30.6-6.4-28.2-3.8.6-8.2,4.8-11.1,4.7-4.9-.1-8.7-8.4-17.4-6.4h0ZM53.5,102.8c2.5-10.5-5.1-19.9-7.2-30.2-2.8-13.8-.1-28.3,2.1-42-5.5,3.8-9.1,6.8-16.2,5.7-2.5-.4-5-2.2-7.8-2.3-6.1-.4-12.8,3.1-18.9-1.7,1.8,15.5,4.2,31.5,8.4,46.5,2.6,9.1,6.6,24.6,17.6,25.7,2.2-2.2-10.6-33.6-7.2-38.7,2.6-3.8,6.6,3.7,7.9,5.7,4.5,7.6,7.5,16.9,12.9,24,.9,1.2,7.1,8.3,8.2,7.3h0Z"/>
  </g>
</svg>