<?xml version="1.0" encoding="UTF-8"?>
<svg id="Layer_2" xmlns="http://www.w3.org/2000/svg" version="1.1" viewBox="0 0 66.3 150">
  <!-- Generator: Adobe Illustrator 29.6.1, SVG Export Plug-In . SVG Version: 2.1.1 Build 9)  -->
  <defs>
    <style>
      .st0 {
        fill: #fff;
      }

      .st1 {
        fill: none;
      }
    </style>
  </defs>
  <path class="st0" d="M66.2,90.5c-16.8,5.8-26.4-14.4-33.9-25.9-.2,4.4,1.5,9.6,3.1,13.7,1.4,3.7,13,21,1.5,17.9-9.4-2.6-21.1-19.5-24.7-28.2-6.1-14.8-4.9-25.2-7.3-39.7C3.5,20.7-2.8,14.1,1.5,5.3c5.1-10.6,16-1.9,22.4-1.9,2.1,0,3.9-1.4,5.9-1.6,6.5-.8,7.6,1.1,12.7,2.3,3.7.9,6.8-1.2,9.5,3.1,1.8,3,2.1,10,1.7,13.5-.5,3.7-2.9,7.4-3.4,11.7-1.4,14.5-.4,32.6,8.1,44.8,3.1,4.5,9,7.8,7.8,13.4h0Z"/>
  <g id="Layer_1-2">
    <rect class="st1" width="66.3" height="150"/>
    <path d="M66.2,90.5c-16.8,5.8-26.4-14.4-33.9-25.9-.2,4.4,1.5,9.6,3.1,13.7,1.4,3.7,13,21,1.5,17.9-9.4-2.6-21.1-19.5-24.7-28.2-6.1-14.8-4.9-25.2-7.3-39.7C3.5,20.7-2.8,14.1,1.5,5.3c5.1-10.6,16-1.9,22.4-1.9,2.1,0,3.9-1.4,5.9-1.6,6.5-.8,7.6,1.1,12.7,2.3,3.7.9,6.8-1.2,9.5,3.1,1.8,3,2.1,10,1.7,13.5-.5,3.7-2.9,7.4-3.4,11.7-1.4,14.5-.4,32.6,8.1,44.8,3.1,4.5,9,7.8,7.8,13.4h0ZM6.8,26.7c11.7-2.1,21.9,6.4,33,5.2,10.9-1.2,14.1-13.4,10.7-22.4-2.2-5.7-4.4-2.8-8.8-3.8-2.2-.5-4.1-2-6.1-2.3-5.2-.8-8.7,2.1-13.4,1.7-5.1-.5-13.2-6.9-17.9-.4-4.4,6.1,0,15.9,2.6,22h0ZM47.8,53.3c-.5-6.3,0-13.7,0-20.2s1.7-1.7.4-2.1c-12,7.5-23-2-34.4-2.5-3.5-.2-5.9-.9-6.4,2.9-1.5,11.8,5.2,34.7,11.4,44.9,3.5,5.7,13.1,16.1,19.2,18.5,1.3.5,1.3-.3,1.3-1.3,0-4.2-5.7-12.9-7.4-17.8-2.1-6.2-3.3-12.1-2.7-18.7,1.6-.4,1.6.5,2.4,1.4,2.6,3,4,8,6.2,11.4,3.9,6.2,12.9,18.7,20.5,19.8,13.5,2.1.6-7.9-2-11.4-4.9-6.6-7.9-16.9-8.5-25h0Z"/>
  </g>
</svg>