<?xml version="1.0" encoding="UTF-8"?>
<svg id="Layer_2" data-name="Layer 2" xmlns="http://www.w3.org/2000/svg" viewBox="0 0 100 150">
  <defs>
    <style>
      .cls-1 {
        fill: none;
      }
    </style>
  </defs>
  <g id="Layer_1-2" data-name="Layer 1">
    <rect class="cls-1" width="100" height="150"/>
    <path d="M82.99,90.52c-16.83,5.78-26.39-14.43-33.88-25.9-.24,4.4,1.54,9.55,3.14,13.65,1.43,3.66,13.04,21.01,1.45,17.86-9.38-2.55-21.15-19.47-24.72-28.16-6.06-14.75-4.91-25.16-7.35-39.66-1.28-7.61-7.63-14.2-3.34-23.04,5.15-10.61,15.96-1.88,22.42-1.9,2.12,0,3.89-1.38,5.94-1.63,6.53-.79,7.65,1.05,12.72,2.26,3.66.87,6.82-1.2,9.48,3.11,1.84,2.98,2.12,10.02,1.68,13.47-.47,3.7-2.94,7.4-3.37,11.74-1.44,14.49-.37,32.58,8.06,44.81,3.1,4.49,9.02,7.84,7.76,13.41ZM23.65,26.7c11.71-2.08,21.94,6.38,33.02,5.18,10.85-1.18,14.13-13.42,10.66-22.42-2.18-5.65-4.4-2.77-8.79-3.8-2.16-.5-4.13-1.97-6.12-2.27-5.25-.8-8.66,2.09-13.38,1.67-5.13-.46-13.25-6.88-17.94-.36-4.42,6.14.02,15.89,2.56,22ZM64.65,53.28c-.51-6.27,0-13.71,0-20.15,0-.21,1.7-1.66.41-2.11-12.01,7.47-23.02-1.97-34.38-2.54-3.49-.17-5.89-.92-6.36,2.93-1.45,11.79,5.19,34.69,11.44,44.88,3.49,5.68,13.13,16.09,19.25,18.52,1.3.52,1.27-.26,1.28-1.27.01-4.16-5.73-12.89-7.38-17.81-2.07-6.17-3.29-12.11-2.72-18.68,1.57-.37,1.63.53,2.37,1.4,2.64,3.05,4,8,6.18,11.44,3.92,6.19,12.91,18.67,20.45,19.84,13.46,2.09.58-7.91-2-11.42-4.88-6.62-7.88-16.9-8.54-25.04Z"/>
  </g>
</svg>