<?xml version="1.0" encoding="UTF-8"?>
<svg id="Layer_2" xmlns="http://www.w3.org/2000/svg" version="1.1" viewBox="0 0 26.2 150">
  <!-- Generator: Adobe Illustrator 29.6.1, SVG Export Plug-In . SVG Version: 2.1.1 Build 9)  -->
  <defs>
    <style>
      .st0 {
        fill: #fff;
      }

      .st1 {
        fill: none;
      }
    </style>
  </defs>
  <path class="st0" d="M2.7,1.3C4.2,0,20.4-.2,23.1.3c.9.2,1.6.4,2.2,1.1,1.2,1.6,1,16.3.7,19.4-.4,4.4-2.1,9.2-2.5,13.5-1.8,21.1,1.2,54.4-5.8,73.9-2.7,7.4-8.4,7.5-9.3-.9-1.1-10.1-.2-22.9-.8-33.6C6.2,53.4,1.4,30.2.8,10.8c0-2.6,0-7.6,1.9-9.5h0Z"/>
  <g id="Layer_1-2">
    <rect class="st1" width="26.2" height="150"/>
    <path d="M2.7,1.3C4.2,0,20.4-.2,23.1.3c.9.2,1.6.4,2.2,1.1,1.2,1.6,1,16.3.7,19.4-.4,4.4-2.1,9.2-2.5,13.5-1.8,21.1,1.2,54.4-5.8,73.9-2.7,7.4-8.4,7.5-9.3-.9-1.1-10.1-.2-22.9-.8-33.6C6.2,53.4,1.4,30.2.8,10.8c0-2.6,0-7.6,1.9-9.5h0ZM23.5,1.9H5.5c-.5,0-1.7,2.3-1.9,3.1-1.1,4.7,1.6,26.8,3.2,31.7.9,2.7,4.3,5.6,7.1,5.4,1.4,0,6.6-4.6,7.1-5.6,1.2-2.6,3.3-18.9,3.4-22.4.2-4.3-.4-8-.8-12.2h0ZM11.8,111.9c.5.3,2-1.7,2.4-2.2,4.5-6.9,6.5-39.7,6.9-49.3.3-6.8-.3-13.8,0-20.6-4.7,4.9-8.5,5.5-14.2,1.7l5,70.5h0Z"/>
  </g>
</svg>