<?xml version="1.0" encoding="UTF-8"?>
<svg id="Layer_2" data-name="Layer 2" xmlns="http://www.w3.org/2000/svg" viewBox="0 0 100 150">
  <defs>
    <style>
      .cls-1 {
        fill: none;
      }
    </style>
  </defs>
  <g id="Layer_1-2" data-name="Layer 1">
    <rect class="cls-1" y="0" width="100" height="150"/>
    <path d="M39.24,1.3C40.72-.09,56.9-.24,59.56.27c.88.17,1.63.43,2.2,1.15,1.23,1.56.99,16.28.74,19.37-.35,4.39-2.13,9.17-2.49,13.46-1.76,21.13,1.21,54.38-5.84,73.9-2.69,7.44-8.35,7.5-9.28-.89-1.12-10.07-.16-22.92-.85-33.57-1.32-20.32-6.19-43.45-6.74-62.93-.07-2.6-.06-7.6,1.92-9.47ZM60.01,1.92h-18.05c-.53,0-1.73,2.33-1.92,3.12-1.07,4.65,1.57,26.75,3.23,31.66.91,2.68,4.25,5.59,7.1,5.44,1.4-.07,6.58-4.57,7.07-5.64,1.19-2.64,3.26-18.86,3.39-22.41.16-4.31-.42-7.97-.83-12.17ZM48.27,111.88c.48.35,1.99-1.66,2.37-2.23,4.47-6.87,6.47-39.68,6.89-49.35.3-6.83-.28-13.77-.04-20.6-4.67,4.88-8.51,5.55-14.25,1.68l5.04,70.51Z"/>
  </g>
</svg>