<?xml version="1.0" encoding="UTF-8"?>
<svg id="Layer_2" xmlns="http://www.w3.org/2000/svg" version="1.1" viewBox="0 0 25.1 150">
  <!-- Generator: Adobe Illustrator 29.6.1, SVG Export Plug-In . SVG Version: 2.1.1 Build 9)  -->
  <defs>
    <style>
      .st0 {
        fill: #fff;
      }

      .st1 {
        fill: none;
      }
    </style>
  </defs>
  <path class="st0" d="M24.1,0c1.1.7,1.1,18.6.9,21.4-.5,7.4-2.4,12.1-2.5,20.1-.3,19.7.6,58.8-6.1,76.2-2,5.2-6.7,8.1-7.4,1-1.5-16.7-1.1-33.6-2.5-50.4C5.4,57.1-2.4,11,.7,4,1.3,2.7,2.8,0,4.3,0h19.7Z"/>
  <g id="Layer_1-2">
    <rect class="st1" width="25.1" height="150"/>
    <path d="M24.1,0c1.1.7,1.1,18.6.9,21.4-.5,7.4-2.4,12.1-2.5,20.1-.3,19.7.6,58.8-6.1,76.2-2,5.2-6.7,8.1-7.4,1-1.5-16.7-1.1-33.6-2.5-50.4C5.4,57.1-2.4,11,.7,4,1.3,2.7,2.8,0,4.3,0h19.7ZM22.4,1.7H5.2c-3.7,0-3.1,13.7-2.9,16.4.3,4.9,2.1,18,4.6,21.4,3.7,5,6.5,6.7,10.4,1.1,4.7-6.9,6-22.7,6-30.9,0-2.4-1.5-5.3-.8-8ZM19,41.1c-3.1,7.9-8.9,4.7-13.4,0l5.9,79.7c1.9,1.3,4.4-10.6,4.7-11.7,3.6-18.6,4.7-46.9,3.7-65.9,0-1,.5-2.3-.8-2.1h0Z"/>
  </g>
</svg>