<?xml version="1.0" encoding="UTF-8"?>
<svg id="Layer_2" data-name="Layer 2" xmlns="http://www.w3.org/2000/svg" viewBox="0 0 100 150">
  <defs>
    <style>
      .cls-1 {
        fill: none;
      }
    </style>
  </defs>
  <g id="Layer_1-2" data-name="Layer 1">
    <rect class="cls-1" width="100" height="150"/>
    <path d="M61.54,0c1.11.71,1.08,18.58.87,21.44-.55,7.42-2.38,12.11-2.51,20.08-.34,19.72.64,58.75-6.11,76.22-2.02,5.24-6.72,8.07-7.36,1.04-1.52-16.65-1.06-33.64-2.52-50.36-.99-11.33-8.82-57.4-5.72-64.42.57-1.3,2.11-4,3.63-4h19.73ZM59.87,1.68h-17.21c-3.7,0-3.11,13.67-2.93,16.36.33,4.85,2.06,17.98,4.59,21.43,3.66,5,6.54,6.74,10.37,1.1,4.72-6.94,6.03-22.68,6.02-30.92,0-2.37-1.52-5.26-.84-7.97ZM56.52,41.14c-3.09,7.94-8.94,4.71-13.43,0l5.88,79.74c1.85,1.35,4.43-10.56,4.65-11.71,3.56-18.64,4.73-46.92,3.74-65.95-.05-.95.55-2.3-.83-2.08Z"/>
  </g>
</svg>