<?xml version="1.0" encoding="UTF-8"?>
<svg id="Layer_2" xmlns="http://www.w3.org/2000/svg" version="1.1" viewBox="0 0 35.7 150">
  <!-- Generator: Adobe Illustrator 29.6.1, SVG Export Plug-In . SVG Version: 2.1.1 Build 9)  -->
  <defs>
    <style>
      .st0 {
        fill: #fff;
      }

      .st1 {
        fill: none;
      }
    </style>
  </defs>
  <path class="st0" d="M17.5.1c7-1.5,16.5,9.9,17.7,16.4,2.1,12.7-4,17.6-4.6,26.8-1.4,21.1-.7,76.1-16.6,91-13.8,12.8-6.7-13.7-6.3-19.7,1.5-24.8-1.8-56.8-6.5-80.8C-.6,24.4-.8,18.3,5.1,10.5,7,8,14.7.7,17.5.1Z"/>
  <g id="Layer_1-2">
    <rect class="st1" width="35.7" height="150"/>
    <path d="M17.4.1c7-1.5,16.5,9.9,17.7,16.4,2.1,12.7-4,17.6-4.6,26.8-1.4,21.1-.7,76.1-16.6,91-13.8,12.8-6.7-13.7-6.3-19.7,1.5-24.8-1.8-56.8-6.5-80.8C-.7,24.4-.9,18.3,5.1,10.5,6.9,8,14.6.7,17.4.1ZM27.4,7c-1.8-1.8-7.3-5.8-9.8-5C13.1,3.4,3.7,14.3,2.7,19.1c-1.8,9,2,30.7,13,32.8,10.1,1.9,16.3-17.4,17.4-25,1-6.8-.8-15-5.8-19.9h0ZM7.6,136c9.7-4.8,12.5-16.2,14.7-26,4.6-20.4,5.1-42.1,6.3-63-7.3,8.2-14.8,9-22.6.8,2.3,24.1,5.3,48.4,3.3,72.6-.2,2.6-2.6,14.3-1.7,15.5h0Z"/>
  </g>
</svg>