<?xml version="1.0" encoding="UTF-8"?>
<svg id="Layer_2" data-name="Layer 2" xmlns="http://www.w3.org/2000/svg" viewBox="0 0 100 150">
  <defs>
    <style>
      .cls-1 {
        fill: none;
      }
    </style>
  </defs>
  <g id="Layer_1-2" data-name="Layer 1">
    <rect class="cls-1" width="100" height="150"/>
    <path d="M49.66.13c7.04-1.47,16.55,9.91,17.65,16.42,2.14,12.67-3.97,17.59-4.57,26.77-1.38,21.1-.66,76.14-16.64,90.96-13.77,12.77-6.66-13.69-6.3-19.73,1.49-24.78-1.85-56.83-6.46-80.82-1.8-9.36-2.01-15.4,3.95-23.25,1.88-2.48,9.56-9.76,12.37-10.35ZM59.66,7c-1.84-1.82-7.32-5.8-9.8-5-4.52,1.45-13.94,12.32-14.9,17.07-1.83,9.04,1.97,30.7,13.03,32.81,10.15,1.94,16.28-17.36,17.45-24.98,1.05-6.78-.83-14.98-5.79-19.89ZM39.82,135.97c9.73-4.82,12.46-16.22,14.69-26.01,4.64-20.38,5.15-42.14,6.28-62.96-7.34,8.19-14.77,9.01-22.65.84,2.26,24.1,5.31,48.39,3.34,72.6-.21,2.58-2.58,14.3-1.66,15.54Z"/>
  </g>
</svg>