<?xml version="1.0" encoding="UTF-8"?>
<svg id="Layer_2" xmlns="http://www.w3.org/2000/svg" version="1.1" viewBox="0 0 35.8 150">
  <!-- Generator: Adobe Illustrator 29.6.1, SVG Export Plug-In . SVG Version: 2.1.1 Build 9)  -->
  <defs>
    <style>
      .st0 {
        fill: #fff;
      }

      .st1 {
        fill: none;
      }
    </style>
  </defs>
  <path class="st0" d="M17.6,0c3.9-.5,14,6.3,16.2,9.5,5.1,7.3-.5,18.1-1.5,25.4-3.4,25.4.5,53.8-11.3,77.6-1.6,3.2-5.7,11.3-9.4,6.5-3.8-4.9-1.7-22-2.1-29C8.3,68.1,2.7,45.5.3,23.7c-.6-5.5-.4-11.4,3.7-15.4C5.3,7,16.1.2,17.6,0Z"/>
  <g id="Layer_1-2">
    <rect class="st1" width="35.8" height="150"/>
    <path d="M17.6,0c3.9-.5,14,6.3,16.2,9.5,5.1,7.3-.5,18.1-1.5,25.4-3.4,25.4.5,53.8-11.3,77.6-1.6,3.2-5.7,11.3-9.4,6.5-3.8-4.9-1.7-22-2.1-29C8.3,68.1,2.7,45.5.3,23.7c-.6-5.5-.4-11.4,3.7-15.4C5.3,7,16.1.2,17.6,0ZM5.5,9.4c-1.9,1.9-3.5,6.8-3.5,9.5,0,2.1,2,13.6,2.9,15.4.5,1.2,6.8,8.1,8.2,8.6,5.5,2.2,11.4-.4,14.9-4.8,4-5.1,7.7-20.8,4.8-26.7-1.2-2.6-12-9.8-14.5-9.8s-11.8,6.8-12.7,7.8h0ZM30.4,38.5c-8,9-17.6,10.1-25.2,0,.4,18.8,5.9,37.1,6.7,55.8.1,2.8-1.5,24.8,2.1,24.8,17.1-23,11.8-53.8,16.4-80.6Z"/>
  </g>
</svg>