<?xml version="1.0" encoding="UTF-8"?>
<svg id="Layer_2" data-name="Layer 2" xmlns="http://www.w3.org/2000/svg" viewBox="0 0 100 150">
  <defs>
    <style>
      .cls-1 {
        fill: none;
      }
    </style>
  </defs>
  <g id="Layer_1-2" data-name="Layer 1">
    <rect class="cls-1" width="100" height="150"/>
    <path d="M49.65.03c3.89-.52,13.97,6.31,16.18,9.5,5.06,7.32-.54,18.12-1.52,25.41-3.42,25.37.47,53.75-11.31,77.59-1.6,3.25-5.7,11.31-9.39,6.51-3.78-4.93-1.73-22-2.09-28.97-1.12-21.95-6.77-44.56-9.18-66.37-.61-5.49-.45-11.36,3.69-15.43C37.37,6.96,48.22.22,49.65.03ZM37.57,9.38c-1.92,1.93-3.48,6.78-3.55,9.46-.05,2.1,2.05,13.57,2.87,15.42.53,1.21,6.82,8.07,8.17,8.62,5.47,2.22,11.4-.42,14.89-4.82,4.01-5.06,7.68-20.8,4.84-26.67-1.24-2.56-11.99-9.78-14.5-9.78-.82,0-11.79,6.84-12.72,7.78ZM62.46,38.48c-7.96,8.95-17.62,10.06-25.16,0,.43,18.77,5.94,37.07,6.74,55.78.12,2.8-1.46,24.77,2.06,24.78,17.12-23.02,11.84-53.82,16.36-80.56Z"/>
  </g>
</svg>