<?xml version="1.0" encoding="UTF-8"?>
<svg id="Layer_2" data-name="Layer 2" xmlns="http://www.w3.org/2000/svg" viewBox="0 0 100 150">
  <defs>
    <style>
      .cls-1 {
        fill: none;
      }
    </style>
  </defs>
  <g id="Layer_1-2" data-name="Layer 1">
    <rect class="cls-1" width="100" height="150"/>
    <path d="M39.59,118.24c-1.1-.68-2.73-7.76-2.73-9.51,0-9.01,2.56-20.02,2.62-29.34.12-17.54-1.97-35.77-5.34-52.65-2.21-11.07-1.98-13.26,6.55-20.86C43.66,3.25,47.42-.49,51.56.05c3.47.46,12.99,9.15,14.33,12.59,3.08,7.85-.93,12.56-2,19.81-3.3,22.43-4.15,44.73-10.4,66.82-1.22,4.33-6.52,23.52-13.9,18.98ZM57.63,37.51c4.66-4.27,8.12-16.61,6.97-22.75-.71-3.77-11.51-13.61-15.29-12.92-1.66.31-11.1,8.68-12.23,10.51-7.19,11.64,6.28,38.23,20.54,25.16ZM62.12,36.13l-6.27,5.05c-5.94,3.69-12.46.73-17.22-3.38,2.24,17.38,3.18,34.92,2.54,52.5-.16,4.32-4.32,25.11.49,26.31,4.33,1.08,8.54-13.94,9.48-17.18,5.98-20.43,7.6-42.34,10.98-63.3Z"/>
  </g>
</svg>