<?xml version="1.0" encoding="UTF-8"?>
<svg id="Layer_2" xmlns="http://www.w3.org/2000/svg" version="1.1" viewBox="0 0 35 150">
  <!-- Generator: Adobe Illustrator 29.6.1, SVG Export Plug-In . SVG Version: 2.1.1 Build 9)  -->
  <defs>
    <style>
      .st0 {
        fill: #fff;
      }

      .st1 {
        fill: none;
      }
    </style>
  </defs>
  <path class="st0" d="M7.1,118.2c-1.1-.7-2.7-7.8-2.7-9.5,0-9,2.6-20,2.6-29.3.1-17.5-2-35.8-5.3-52.7C-.6,15.7-.4,13.5,8.2,5.9,11.1,3.3,14.9-.5,19,0c3.5.5,13,9.1,14.3,12.6,3.1,7.8-.9,12.6-2,19.8-3.3,22.4-4.1,44.7-10.4,66.8-1.2,4.3-6.5,23.5-13.9,19h0Z"/>
  <g id="Layer_1-2">
    <rect class="st1" width="35" height="150"/>
    <path d="M7.5,118.2c-1.1-.7-2.7-7.8-2.7-9.5,0-9,2.6-20,2.6-29.3.1-17.5-2-35.8-5.3-52.7C-.1,15.7,0,13.5,8.6,5.9,11.6,3.2,15.3-.5,19.5,0c3.5.5,13,9.1,14.3,12.6,3.1,7.8-.9,12.6-2,19.8-3.3,22.4-4.1,44.7-10.4,66.8-1.2,4.3-6.5,23.5-13.9,19h0ZM25.5,37.5c4.7-4.3,8.1-16.6,7-22.8-.7-3.8-11.5-13.6-15.3-12.9-1.7.3-11.1,8.7-12.2,10.5-7.2,11.6,6.3,38.2,20.5,25.2h0ZM30,36.1l-6.3,5c-5.9,3.7-12.5.7-17.2-3.4,2.2,17.4,3.2,34.9,2.5,52.5-.2,4.3-4.3,25.1.5,26.3,4.3,1.1,8.5-13.9,9.5-17.2,6-20.4,7.6-42.3,11-63.3Z"/>
  </g>
</svg>