<?xml version="1.0" encoding="UTF-8"?>
<svg id="Layer_2" xmlns="http://www.w3.org/2000/svg" version="1.1" viewBox="0 0 63.1 150">
  <!-- Generator: Adobe Illustrator 29.6.1, SVG Export Plug-In . SVG Version: 2.1.1 Build 9)  -->
  <defs>
    <style>
      .st0 {
        fill: #fff;
      }

      .st1 {
        fill: none;
      }
    </style>
  </defs>
  <path class="st0" d="M50.1.2c11.6-1.9,14,11.3,12.6,20.2-.8,5.1-4.5,10.3-5.6,15.4-4.9,23,7,46.9-9.8,69.1-2.2,3-9.2,11.3-12.5,6.8-5.6-7.6,4.9-19.9,4.6-29.7,0-1.8-2.2-11-4.6-10.5-1.8.4-13.3,27.4-16.5,32.2-2.6,3.8-15,19.2-17.9,9.8-1.8-5.8,3.7-17.1,5.2-23.4,3.2-13.4,4.5-29.7,3.6-43.4-.7-11.7-7.7-25.4-3.8-36.5,2.3-6.6,8.5-2.9,11.7-3.5,1-.2,5-4.1,7.8-4.7,2.3-.5,5.7-.4,8,0,2.6.5,5.7,3.1,6.9,3.1,1.7,0,6.8-4.2,10.3-4.8h0Z"/>
  <g id="Layer_1-2">
    <rect class="st1" width="63.1" height="150"/>
    <path d="M50.1.2c11.6-1.9,14,11.3,12.6,20.2-.8,5.1-4.5,10.3-5.6,15.4-4.9,23,7,46.9-9.8,69.1-2.2,3-9.2,11.3-12.5,6.8-5.6-7.6,4.9-19.9,4.6-29.7,0-1.8-2.2-11-4.6-10.5-1.8.4-13.3,27.4-16.5,32.2-2.6,3.8-15,19.2-17.9,9.8-1.8-5.8,3.7-17.1,5.2-23.4,3.2-13.4,4.5-29.7,3.6-43.4-.7-11.7-7.7-25.4-3.8-36.5,2.3-6.6,8.5-2.9,11.7-3.5,1-.2,5-4.1,7.8-4.7,2.3-.5,5.7-.4,8,0,2.6.5,5.7,3.1,6.9,3.1,1.7,0,6.8-4.2,10.3-4.8h0ZM55.2,34.2c2.3-2.2,6.1-16.9,6.1-20.4,0-4.6-3.5-12.2-8.8-12.2-4.9,0-10.7,5.9-12.6,5.9s-4.5-3.2-7.1-3.8c-2.1-.5-5.1-.7-7.1-.3-3.5.6-5.8,4.3-7.8,4.8-2.8.8-6.9-2.4-9.5.7-3.8,4.6-1.6,27.1,5.1,29.2,2,.6,4.1-.5,6.2-.5,8.3.1,8.6-1.5,15.2-2.4,5.2-.7,16.4,2.5,20.3-1.1h0ZM54.5,36.9c-6.3,2.2-13-.7-18.8,0-7.2.9-7.8,2.5-16.9,2.4-2.5,0-4.9,1.7-8,0,0,17.6.9,33.7-3.2,50.9-1.3,5.3-6.7,17.8-5.4,22,.3,1,.7,2,1.5,2.7,5.4-3.5,9.6-7.5,13-13,2.8-4.5,14.8-31.6,16.5-32.2,8.3-2.9,8.3,13.2,7.5,18.4-1.3,8.4-8.6,15-3.8,23.5,12.9-7.4,17.8-25.9,18.4-39.9.3-6.2-1.4-11-1.7-16.8-.4-6.1.8-12,.9-18.1h0Z"/>
  </g>
</svg>