<?xml version="1.0" encoding="UTF-8"?>
<svg id="Layer_2" data-name="Layer 2" xmlns="http://www.w3.org/2000/svg" viewBox="0 0 100 150">
  <defs>
    <style>
      .cls-1 {
        fill: none;
      }
    </style>
  </defs>
  <g id="Layer_1-2" data-name="Layer 1">
    <rect class="cls-1" width="100" height="150"/>
    <path d="M68.58.18c11.6-1.89,14,11.28,12.61,20.17-.8,5.09-4.52,10.32-5.59,15.39-4.86,23.04,6.99,46.9-9.81,69.09-2.24,2.96-9.17,11.27-12.51,6.77-5.63-7.59,4.87-19.89,4.63-29.74-.04-1.79-2.19-11.04-4.63-10.52-1.77.38-13.28,27.36-16.54,32.16-2.57,3.79-15.03,19.16-17.93,9.85-1.81-5.8,3.74-17.07,5.25-23.37,3.2-13.37,4.46-29.72,3.64-43.44-.7-11.68-7.69-25.38-3.85-36.51,2.29-6.63,8.49-2.93,11.69-3.52,1.01-.19,5.02-4.07,7.84-4.65,2.28-.47,5.69-.39,8,.01,2.58.45,5.68,3.09,6.91,3.13,1.72.06,6.82-4.25,10.28-4.81ZM73.63,34.19c2.34-2.19,6.11-16.91,6.07-20.36-.05-4.61-3.45-12.17-8.79-12.2-4.91-.03-10.7,5.9-12.6,5.9-1.44,0-4.54-3.23-7.08-3.83-2.08-.49-5.07-.67-7.15-.31-3.49.59-5.8,4.28-7.79,4.85-2.83.8-6.92-2.39-9.5.74-3.77,4.57-1.56,27.08,5.15,29.21,2.02.64,4.05-.54,6.23-.51,8.27.12,8.63-1.45,15.18-2.36,5.17-.72,16.38,2.53,20.29-1.12ZM72.99,36.92c-6.27,2.24-12.97-.67-18.81.08-7.18.92-7.82,2.46-16.86,2.43-2.54,0-4.92,1.68-7.97.01.09,17.56.95,33.71-3.25,50.89-1.3,5.31-6.73,17.79-5.45,21.98.31,1.01.65,2,1.55,2.65,5.44-3.5,9.57-7.51,13.04-12.97,2.84-4.48,14.77-31.61,16.48-32.21,8.28-2.9,8.26,13.23,7.46,18.38-1.3,8.38-8.59,15.01-3.81,23.46,12.94-7.45,17.81-25.87,18.44-39.88.28-6.18-1.36-10.98-1.7-16.75-.36-6.11.8-12.02.87-18.08Z"/>
  </g>
</svg>