<?xml version="1.0" encoding="UTF-8"?>
<svg id="Layer_2" xmlns="http://www.w3.org/2000/svg" version="1.1" viewBox="0 0 56.5 150">
  <!-- Generator: Adobe Illustrator 29.6.1, SVG Export Plug-In . SVG Version: 2.1.1 Build 9)  -->
  <defs>
    <style>
      .st0 {
        fill: #fff;
      }

      .st1 {
        fill: none;
      }
    </style>
  </defs>
  <path class="st0" d="M30.8,67.9c-1.8-.4-1.9.9-2.7,1.9-4.9,6.7-15.1,32.7-22.3,34.8-1.9.6-3.8.2-4.8-1.6-3.8-6.6,4-19.6,5.8-26.8,4-15.7,1.2-32.3-.6-48-.8-6.7-3.4-7.8-1.1-15.8C7.6,4.2,13,1.2,21.4,3c2.9.6,8.6,4.2,9.8,4.2,2.5,0,9.6-7.8,15.7-7.1,3,.3,6.1,2.5,7.5,5.1,2.7,4.8,2.3,13.7,1.1,19.1-3.4,14.7-5.2,30.2-8.6,45.1-2.2,9.4-7.6,33.6-17.9,36.7-12.5,3.8-3.3-15.1-2-20.4,1.4-5.9,2.2-11.9,3.6-17.8h.2Z"/>
  <g id="Layer_1-2">
    <rect class="st1" width="56.5" height="150"/>
    <path d="M30.8,67.9c-1.8-.4-1.9.9-2.7,1.9-4.9,6.7-15.1,32.7-22.3,34.8-1.9.6-3.8.2-4.8-1.6-3.8-6.6,4-19.6,5.8-26.8,4-15.7,1.2-32.3-.6-48-.8-6.7-3.4-7.8-1.1-15.8C7.6,4.2,13,1.2,21.4,3c2.9.6,8.6,4.2,9.8,4.2,2.5,0,9.6-7.8,15.7-7.1,3,.3,6.1,2.5,7.5,5.1,2.7,4.8,2.3,13.7,1.1,19.1-3.4,14.7-5.2,30.2-8.6,45.1-2.2,9.4-7.6,33.6-17.9,36.7-12.5,3.8-3.3-15.1-2-20.4,1.4-5.9,2.2-11.9,3.6-17.8h.2ZM45.7,1.7c-4.7.4-11.8,7.3-14.5,7.3s-7.6-4.2-11.1-4.8C4.1,1.6,1.5,28.1,15.7,33.9c7.8,3.2,9.3-.6,15.5-1.3,6.5-.7,12.5,3.4,18.5-1.6,7-5.9,6.6-30.1-4-29.2h0ZM51.8,32.6c-2.6.4-4.5,2.1-7.2,2.4-4.7.6-8.4-1.1-12.5-.8-3.5.2-7.1,2.6-10.9,2.6s-9.5-2.6-13-5.9c2.4,15.9,5,31.4.6,47.2-2.3,8.3-8.7,15.8-5.6,25,2.5,2.2,11.6-12.6,12.7-14.6,2.3-3.9,10.3-22.9,13.7-23.3.9,0,2,0,2.5.8,3.1,4.5-9.1,36.7-7.2,38.7,9.2-.5,13.5-12.2,15.9-19.8,5.3-16.8,7.2-35.2,11-52.4h0Z"/>
  </g>
</svg>