<?xml version="1.0" encoding="UTF-8"?>
<svg id="Layer_2" data-name="Layer 2" xmlns="http://www.w3.org/2000/svg" viewBox="0 0 100 150">
  <defs>
    <style>
      .cls-1 {
        fill: none;
      }
    </style>
  </defs>
  <g id="Layer_1-2" data-name="Layer 1">
    <rect class="cls-1" width="100" height="150"/>
    <path d="M52.53,67.89c-1.81-.4-1.91.89-2.67,1.94-4.86,6.72-15.09,32.69-22.28,34.84-1.91.57-3.79.22-4.81-1.57-3.79-6.62,3.97-19.6,5.83-26.82,4.04-15.74,1.23-32.29-.62-48.05-.79-6.69-3.42-7.81-1.07-15.76,2.44-8.22,7.83-11.25,16.26-9.51,2.91.6,8.56,4.21,9.78,4.2,2.53-.03,9.56-7.8,15.72-7.11,3,.34,6.06,2.51,7.53,5.13,2.71,4.83,2.34,13.7,1.11,19.07-3.38,14.74-5.15,30.21-8.57,45.15-2.15,9.42-7.57,33.58-17.85,36.7-12.46,3.78-3.26-15.05-1.96-20.43,1.41-5.87,2.18-11.93,3.6-17.79ZM67.43,1.72c-4.65.4-11.82,7.34-14.48,7.34-2.31,0-7.64-4.2-11.11-4.78-16.03-2.65-18.63,23.86-4.41,29.59,7.8,3.15,9.3-.6,15.5-1.28,6.45-.71,12.48,3.44,18.5-1.65,6.97-5.9,6.63-30.15-3.99-29.23ZM73.51,32.63c-2.58.39-4.47,2.06-7.2,2.44-4.65.63-8.44-1.08-12.5-.79-3.49.25-7.1,2.61-10.93,2.61-5.03,0-9.5-2.62-13-5.94,2.38,15.9,4.98,31.39.6,47.19-2.31,8.32-8.68,15.82-5.63,25,2.54,2.18,11.58-12.57,12.73-14.55,2.26-3.9,10.35-22.89,13.71-23.28.94-.11,1.97,0,2.55.85,3.12,4.54-9.15,36.67-7.17,38.66,9.21-.48,13.51-12.21,15.89-19.78,5.29-16.78,7.15-35.23,10.96-52.41Z"/>
  </g>
</svg>