<?xml version="1.0" encoding="UTF-8"?>
<svg id="Layer_2" data-name="Layer 2" xmlns="http://www.w3.org/2000/svg" viewBox="0 0 100 150">
  <defs>
    <style>
      .cls-1 {
        fill: none;
      }
    </style>
  </defs>
  <g id="Layer_1-2" data-name="Layer 1">
    <rect class="cls-1" width="100" height="150"/>
    <path d="M51.9,63.8l-8.88,14.19c-5.01,6.72-14.79,16.57-24.13,13.37-6.05-2.07,2.18-8.49,3.61-10.38,10.72-14.12,13.3-32.85,10.97-50.38-.4-3.04-2.98-5.65-3.42-9.17s-.22-9.67,1.28-13.04c2.66-5.99,5.35-3.33,9.88-4.39,5.12-1.2,6.32-3.05,12.72-2.25,2.31.29,4.16,1.78,6.77,1.67,5.14-.23,10.08-5.33,16.86-2.63,11.13,4.42,2.87,20.71,1.44,28.43-1.53,8.29-1.29,15.94-3.18,24.52-3.22,14.68-13.42,36.31-28.36,42.14-12.57,4.91-.55-13.98.87-17.59,1.76-4.45,3.45-9.71,3.55-14.49ZM79.36,4.44c-5.37-6.44-13.44.62-18.94.98-3.34.22-5.92-2.18-9.77-2.12-3.65.05-6.15,1.84-9.29,2.54-3.75.84-6.09-1.76-8.27,3.48s-1.6,15.99,2.89,19.62c12.01,9.71,28.15-6.52,41.09-1.22,1.33-6.5,7.25-17.32,2.28-23.27ZM77.1,29.39c-10.23-4.03-18.48,3.52-28.09,4.21-5.4.39-9.01-.5-13.88-2.54,1.78,16.48,1.33,35.52-9.26,49.08-1.87,2.4-11.31,8.93-3.78,9.73,10.37,1.1,20.35-14.37,24.93-22.16.97-1.65,4.76-10.44,5.31-10.65.35-.14,2.19-.31,2.11.51.55,6.84-1.29,13.51-3.58,19.86-1.06,2.93-7.46,14.94-7.3,16.18.36,2.76,5.77-1.18,7.11-2.09,19.99-13.56,24.53-39.72,26.42-62.13Z"/>
  </g>
</svg>