<?xml version="1.0" encoding="UTF-8"?>
<svg id="Layer_2" xmlns="http://www.w3.org/2000/svg" version="1.1" viewBox="0 0 66.6 150">
  <!-- Generator: Adobe Illustrator 29.6.1, SVG Export Plug-In . SVG Version: 2.1.1 Build 9)  -->
  <defs>
    <style>
      .st0 {
        fill: #fff;
      }

      .st1 {
        fill: none;
      }
    </style>
  </defs>
  <path class="st0" d="M35.2,63.8l-8.9,14.2c-5,6.7-14.8,16.6-24.1,13.4-6.1-2.1,2.2-8.5,3.6-10.4,10.7-14.1,13.3-32.8,11-50.4-.4-3-3-5.6-3.4-9.2s-.2-9.7,1.3-13c2.7-6,5.3-3.3,9.9-4.4,5.1-1.2,6.3-3,12.7-2.2,2.3.3,4.2,1.8,6.8,1.7,5.1-.2,10.1-5.3,16.9-2.6,11.1,4.4,2.9,20.7,1.4,28.4-1.5,8.3-1.3,15.9-3.2,24.5-3.2,14.7-13.4,36.3-28.4,42.1-12.6,4.9-.5-14,.9-17.6,1.8-4.4,3.4-9.7,3.6-14.5h0Z"/>
  <g id="Layer_1-2">
    <rect class="st1" width="66.6" height="150"/>
    <path d="M35.2,63.8l-8.9,14.2c-5,6.7-14.8,16.6-24.1,13.4-6.1-2.1,2.2-8.5,3.6-10.4,10.7-14.1,13.3-32.8,11-50.4-.4-3-3-5.6-3.4-9.2s-.2-9.7,1.3-13c2.7-6,5.3-3.3,9.9-4.4,5.1-1.2,6.3-3,12.7-2.2,2.3.3,4.2,1.8,6.8,1.7,5.1-.2,10.1-5.3,16.9-2.6,11.1,4.4,2.9,20.7,1.4,28.4-1.5,8.3-1.3,15.9-3.2,24.5-3.2,14.7-13.4,36.3-28.4,42.1-12.6,4.9-.5-14,.9-17.6,1.8-4.4,3.4-9.7,3.6-14.5h0ZM62.7,4.4c-5.4-6.4-13.4.6-18.9,1-3.3.2-5.9-2.2-9.8-2.1-3.6,0-6.1,1.8-9.3,2.5-3.8.8-6.1-1.8-8.3,3.5s-1.6,16,2.9,19.6c12,9.7,28.2-6.5,41.1-1.2,1.3-6.5,7.2-17.3,2.3-23.3h0ZM60.4,29.4c-10.2-4-18.5,3.5-28.1,4.2-5.4.4-9-.5-13.9-2.5,1.8,16.5,1.3,35.5-9.3,49.1-1.9,2.4-11.3,8.9-3.8,9.7,10.4,1.1,20.4-14.4,24.9-22.2,1-1.7,4.8-10.4,5.3-10.7.3-.1,2.2-.3,2.1.5.5,6.8-1.3,13.5-3.6,19.9-1.1,2.9-7.5,14.9-7.3,16.2.4,2.8,5.8-1.2,7.1-2.1,20-13.6,24.5-39.7,26.4-62.1h0Z"/>
  </g>
</svg>